<svg width="435" height="375" viewBox="0 0 435 375" fill="none" xmlns="http://www.w3.org/2000/svg">
<path d="M50.9023 287.9C51.4783 288.452 51.7957 289.006 51.9606 289.567C52.1274 290.135 52.1462 290.739 52.0846 291.401C52.0223 292.072 51.8828 292.765 51.7466 293.532C51.6294 294.193 51.5175 294.896 51.4818 295.631L51.472 295.947C51.4584 296.732 51.6085 297.504 51.7824 298.236C51.9612 298.988 52.1577 299.671 52.2768 300.372C52.3937 301.06 52.4245 301.709 52.2841 302.338C52.1452 302.959 51.8322 303.591 51.2152 304.235L50.935 304.506C49.5026 305.798 47.5665 306.114 45.3862 305.585C43.0499 305.018 40.4826 303.487 38.1276 301.23C35.7733 298.974 34.1336 296.473 33.4678 294.163C32.8051 291.863 33.1138 289.8 34.5687 288.282C35.6483 287.155 36.8548 287.034 38.2028 287.195C38.8996 287.279 39.5746 287.43 40.3157 287.557C41.0327 287.679 41.7827 287.771 42.52 287.702L42.52 287.704C43.3968 287.622 44.2281 287.437 45.0018 287.254C45.7866 287.068 46.4984 286.887 47.1884 286.793C47.8715 286.699 48.5004 286.697 49.1014 286.85C49.6967 287.003 50.2934 287.316 50.9023 287.9Z" stroke="black"/>
<path d="M45.324 271.368C45.2685 272.42 45.1771 273.839 45.0362 275.31C44.8951 276.782 44.705 278.295 44.4521 279.538C44.3255 280.16 44.1853 280.703 44.0322 281.135C43.8743 281.58 43.7203 281.854 43.5938 281.986C42.1634 283.478 39.791 283.53 38.3015 282.103L38.1652 281.965C36.8068 280.524 36.8042 278.253 38.1895 276.807C38.9737 275.989 40.9643 274.307 42.788 272.809C43.6938 272.064 44.5495 271.372 45.1786 270.866C45.2391 270.817 45.2977 270.771 45.3538 270.726C45.3448 270.919 45.3363 271.135 45.324 271.368Z" stroke="black"/>
<path d="M67.6006 292.352C67.1218 293.002 66.4668 293.887 65.7614 294.823C64.3409 296.709 62.7441 298.768 61.9603 299.585L61.8237 299.721C60.3821 301.08 58.1111 301.085 56.6679 299.702C55.176 298.272 55.1265 295.899 56.5567 294.407C56.6833 294.275 56.9501 294.109 57.3886 293.933C57.8137 293.761 58.3506 293.599 58.9668 293.446C60.198 293.141 61.701 292.886 63.1665 292.683C64.6297 292.48 66.0445 292.329 67.0938 292.229C67.3259 292.207 67.5402 292.189 67.7329 292.172C67.6904 292.23 67.6465 292.29 67.6006 292.352Z" stroke="black"/>
<path d="M58.8061 271.757C58.5396 272.607 58.1681 273.757 57.7463 274.958C57.324 276.161 56.8542 277.409 56.3917 278.457C55.9186 279.528 55.483 280.318 55.1471 280.668C53.7165 282.161 51.3461 282.213 49.8569 280.786C48.3617 279.353 48.3123 276.981 49.7421 275.489C50.0777 275.138 50.8484 274.671 51.8998 274.153C52.9274 273.647 54.1546 273.125 55.3393 272.653C56.5225 272.181 57.6566 271.762 58.4952 271.46C58.6574 271.402 58.8088 271.348 58.9469 271.299C58.9038 271.439 58.8576 271.592 58.8061 271.757Z" stroke="black"/>
<path d="M66.4273 279.062C66.1607 279.912 65.7887 281.061 65.3668 282.263C64.9444 283.465 64.4747 284.713 64.0122 285.761C63.539 286.833 63.1035 287.622 62.7676 287.973C61.3369 289.465 58.9672 289.518 57.4781 288.091C55.9875 286.662 55.9362 284.289 57.3661 282.796L57.5124 282.659C57.8991 282.328 58.6035 281.913 59.5231 281.46C60.5505 280.954 61.7775 280.432 62.9619 279.959C64.1446 279.487 65.2781 279.067 66.1164 278.765C66.2784 278.707 66.4301 278.653 66.5681 278.604C66.525 278.744 66.4788 278.897 66.4273 279.062Z" stroke="black"/>
<path d="M70.8608 235.51C71.4368 236.062 71.7542 236.616 71.9191 237.178C72.0858 237.745 72.1047 238.349 72.0431 239.012C71.9808 239.683 71.8413 240.375 71.7051 241.143C71.5879 241.804 71.476 242.506 71.4403 243.241L71.4305 243.558C71.4169 244.342 71.567 245.115 71.7409 245.846C71.9197 246.598 72.1162 247.282 72.2353 247.982C72.3522 248.67 72.383 249.319 72.2426 249.948C72.1037 250.569 71.7907 251.201 71.1737 251.845L70.8935 252.116C69.4611 253.409 67.525 253.724 65.3447 253.195C63.0084 252.628 60.4411 251.097 58.0861 248.84C55.7318 246.584 54.0921 244.084 53.4263 241.773C52.7636 239.473 53.0723 237.41 54.5272 235.892C55.6068 234.766 56.8133 234.644 58.1613 234.806C58.8581 234.889 59.5331 235.04 60.2742 235.167C60.9912 235.29 61.7412 235.382 62.4785 235.313L62.4785 235.314C63.3553 235.233 64.1866 235.047 64.9603 234.864C65.7451 234.678 66.4569 234.498 67.1469 234.403C67.83 234.31 68.4589 234.307 69.0599 234.461C69.6552 234.613 70.2519 234.927 70.8608 235.51Z" stroke="black"/>
<path d="M65.2825 218.979C65.227 220.031 65.1356 221.45 64.9947 222.92C64.8536 224.393 64.6635 225.906 64.4106 227.149C64.284 227.771 64.1438 228.314 63.9907 228.746C63.8328 229.191 63.6788 229.465 63.5523 229.597C62.1219 231.089 59.7495 231.141 58.26 229.714L58.1237 229.576C56.7653 228.135 56.7627 225.863 58.148 224.418C58.9322 223.599 60.9228 221.918 62.7465 220.42C63.6523 219.675 64.508 218.983 65.1371 218.477C65.1976 218.428 65.2562 218.382 65.3123 218.336C65.3033 218.53 65.2948 218.745 65.2825 218.979Z" stroke="black"/>
<path d="M87.5591 239.963C87.0803 240.613 86.4253 241.498 85.7199 242.434C84.2994 244.319 82.7026 246.379 81.9188 247.196L81.7821 247.332C80.3406 248.691 78.0696 248.696 76.6264 247.313C75.1345 245.883 75.085 243.51 76.5152 242.018C76.6418 241.886 76.9085 241.72 77.3471 241.544C77.7722 241.372 78.3091 241.21 78.9253 241.057C80.1565 240.751 81.6595 240.497 83.125 240.293C84.5882 240.091 86.003 239.94 87.0523 239.84C87.2844 239.818 87.4987 239.8 87.6914 239.783C87.6489 239.84 87.605 239.901 87.5591 239.963Z" stroke="black"/>
<path d="M78.7646 219.367C78.4981 220.217 78.1266 221.367 77.7048 222.569C77.2825 223.772 76.8127 225.019 76.3502 226.067C75.877 227.139 75.4415 227.928 75.1056 228.279C73.6749 229.771 71.3046 229.823 69.8154 228.396C68.3202 226.963 68.2708 224.591 69.7006 223.099C70.0362 222.749 70.8069 222.281 71.8582 221.764C72.8859 221.258 74.1131 220.736 75.2977 220.263C76.481 219.792 77.6151 219.372 78.4537 219.07C78.6159 219.012 78.7673 218.959 78.9054 218.91C78.8623 219.049 78.8161 219.203 78.7646 219.367Z" stroke="black"/>
<path d="M86.3863 226.672C86.1197 227.522 85.7477 228.672 85.3258 229.873C84.9034 231.076 84.4337 232.324 83.9712 233.371C83.498 234.443 83.0625 235.233 82.7266 235.583C81.2959 237.076 78.9262 237.128 77.4371 235.701C75.9465 234.273 75.8952 231.899 77.3251 230.407L77.4714 230.269C77.858 229.938 78.5625 229.524 79.4821 229.07C80.5095 228.564 81.7365 228.042 82.9209 227.57C84.1036 227.098 85.2371 226.677 86.0754 226.375C86.2374 226.317 86.3891 226.264 86.5271 226.214C86.4839 226.354 86.4378 226.508 86.3863 226.672Z" stroke="black"/>
<path d="M126.229 231.688C126.805 232.24 127.123 232.794 127.288 233.356C127.454 233.923 127.473 234.527 127.412 235.189C127.349 235.86 127.21 236.553 127.074 237.32C126.957 237.981 126.845 238.684 126.809 239.419L126.799 239.735C126.786 240.52 126.936 241.292 127.11 242.024C127.288 242.776 127.485 243.459 127.604 244.16C127.721 244.848 127.752 245.497 127.611 246.126C127.472 246.747 127.159 247.379 126.542 248.023L126.262 248.294C124.83 249.586 122.894 249.902 120.713 249.373C118.377 248.806 115.81 247.275 113.455 245.018C111.1 242.762 109.461 240.261 108.795 237.951C108.132 235.651 108.441 233.588 109.896 232.07C110.975 230.943 112.182 230.822 113.53 230.983C114.227 231.067 114.902 231.218 115.643 231.345C116.36 231.467 117.11 231.559 117.847 231.49L117.847 231.492C118.724 231.411 119.555 231.225 120.329 231.042C121.114 230.856 121.826 230.675 122.516 230.581C123.199 230.488 123.828 230.485 124.429 230.638C125.024 230.791 125.621 231.104 126.229 231.688Z" stroke="black"/>
<path d="M120.651 215.156C120.596 216.209 120.504 217.628 120.363 219.098C120.222 220.571 120.032 222.084 119.779 223.327C119.653 223.948 119.512 224.492 119.359 224.923C119.201 225.369 119.047 225.643 118.921 225.775C117.491 227.267 115.118 227.319 113.629 225.891L113.492 225.754C112.134 224.313 112.131 222.041 113.517 220.595C114.301 219.777 116.291 218.096 118.115 216.597C119.021 215.853 119.877 215.16 120.506 214.655C120.566 214.606 120.625 214.559 120.681 214.514C120.672 214.708 120.663 214.923 120.651 215.156Z" stroke="black"/>
<path d="M142.928 236.141C142.449 236.791 141.794 237.676 141.089 238.612C139.669 240.498 138.072 242.557 137.288 243.375L137.151 243.51C135.71 244.869 133.439 244.874 131.996 243.491C130.504 242.061 130.454 239.689 131.884 238.196C132.011 238.064 132.278 237.898 132.716 237.722C133.141 237.551 133.678 237.388 134.294 237.235C135.526 236.93 137.029 236.675 138.494 236.472C139.957 236.269 141.372 236.118 142.421 236.018C142.654 235.996 142.868 235.978 143.06 235.961C143.018 236.019 142.974 236.079 142.928 236.141Z" stroke="black"/>
<path d="M134.133 215.545C133.867 216.395 133.495 217.545 133.073 218.747C132.651 219.949 132.181 221.197 131.719 222.245C131.246 223.316 130.81 224.106 130.474 224.457C129.044 225.949 126.673 226.001 125.184 224.574C123.689 223.141 123.639 220.769 125.069 219.277C125.405 218.927 126.176 218.459 127.227 217.941C128.255 217.435 129.482 216.913 130.666 216.441C131.85 215.969 132.984 215.55 133.822 215.248C133.985 215.19 134.136 215.136 134.274 215.087C134.231 215.227 134.185 215.381 134.133 215.545Z" stroke="black"/>
<path d="M141.754 222.85C141.488 223.7 141.116 224.849 140.694 226.051C140.272 227.254 139.802 228.501 139.339 229.549C138.866 230.621 138.431 231.41 138.095 231.761C136.664 233.253 134.294 233.306 132.805 231.879C131.315 230.45 131.263 228.077 132.693 226.584L132.84 226.447C133.226 226.116 133.931 225.701 134.85 225.248C135.878 224.742 137.105 224.22 138.289 223.747C139.472 223.275 140.605 222.855 141.444 222.553C141.606 222.495 141.757 222.441 141.895 222.392C141.852 222.532 141.806 222.685 141.754 222.85Z" stroke="black"/>
<path d="M139.595 180.136C140.171 180.688 140.488 181.242 140.653 181.804C140.82 182.371 140.839 182.975 140.777 183.638C140.715 184.309 140.575 185.001 140.439 185.769C140.322 186.429 140.21 187.132 140.174 187.867L140.164 188.184C140.151 188.968 140.301 189.741 140.475 190.472C140.654 191.224 140.85 191.908 140.969 192.608C141.086 193.296 141.117 193.945 140.976 194.574C140.838 195.195 140.525 195.827 139.908 196.471L139.627 196.742C138.195 198.035 136.259 198.35 134.079 197.821C131.742 197.254 129.175 195.723 126.82 193.466C124.466 191.21 122.826 188.71 122.16 186.399C121.497 184.099 121.806 182.036 123.261 180.518C124.341 179.392 125.547 179.27 126.895 179.432C127.592 179.515 128.267 179.666 129.008 179.793C129.725 179.916 130.475 180.008 131.212 179.939L131.212 179.94C132.089 179.859 132.92 179.673 133.694 179.49C134.479 179.304 135.191 179.124 135.881 179.029C136.564 178.936 137.193 178.933 137.794 179.087C138.389 179.239 138.986 179.553 139.595 180.136Z" stroke="black"/>
<path d="M134.016 163.604C133.961 164.657 133.869 166.076 133.729 167.546C133.588 169.019 133.397 170.531 133.144 171.774C133.018 172.396 132.878 172.939 132.725 173.371C132.567 173.817 132.413 174.09 132.286 174.222C130.856 175.715 128.483 175.766 126.994 174.339L126.858 174.202C125.499 172.761 125.497 170.489 126.882 169.043C127.666 168.225 129.657 166.544 131.48 165.045C132.386 164.301 133.242 163.608 133.871 163.102C133.932 163.054 133.99 163.007 134.046 162.962C134.037 163.156 134.029 163.371 134.016 163.604Z" stroke="black"/>
<path d="M156.293 184.588C155.814 185.238 155.159 186.123 154.454 187.059C153.033 188.945 151.437 191.005 150.653 191.822L150.516 191.957C149.074 193.317 146.803 193.321 145.36 191.939C143.868 190.509 143.819 188.136 145.249 186.643C145.376 186.511 145.642 186.346 146.081 186.169C146.506 185.998 147.043 185.835 147.659 185.682C148.89 185.377 150.393 185.122 151.859 184.919C153.322 184.716 154.737 184.565 155.786 184.465C156.018 184.443 156.233 184.425 156.425 184.408C156.383 184.466 156.339 184.526 156.293 184.588Z" stroke="black"/>
<path d="M147.498 163.993C147.232 164.843 146.86 165.993 146.439 167.195C146.016 168.398 145.547 169.645 145.084 170.693C144.611 171.765 144.175 172.554 143.84 172.905C142.409 174.397 140.039 174.449 138.549 173.022C137.054 171.589 137.005 169.217 138.435 167.725C138.77 167.375 139.541 166.907 140.592 166.389C141.62 165.884 142.847 165.362 144.032 164.889C145.215 164.418 146.349 163.998 147.188 163.696C147.35 163.638 147.501 163.585 147.639 163.536C147.596 163.675 147.55 163.829 147.498 163.993Z" stroke="black"/>
<path d="M155.12 171.298C154.854 172.148 154.482 173.298 154.06 174.499C153.637 175.702 153.168 176.95 152.705 177.997C152.232 179.069 151.796 179.859 151.461 180.209C150.03 181.702 147.66 181.754 146.171 180.327C144.68 178.899 144.629 176.525 146.059 175.033L146.205 174.895C146.592 174.564 147.296 174.15 148.216 173.696C149.243 173.19 150.47 172.668 151.655 172.196C152.837 171.724 153.971 171.303 154.809 171.001C154.971 170.943 155.123 170.89 155.261 170.84C155.218 170.98 155.172 171.134 155.12 171.298Z" stroke="black"/>
<path d="M196.876 172.499C197.452 173.051 197.77 173.606 197.935 174.167C198.101 174.735 198.12 175.338 198.059 176.001C197.996 176.672 197.857 177.364 197.721 178.132C197.604 178.793 197.492 179.496 197.456 180.23L197.446 180.547C197.432 181.331 197.583 182.104 197.757 182.836C197.935 183.588 198.132 184.271 198.251 184.972C198.368 185.659 198.399 186.308 198.258 186.937C198.119 187.559 197.806 188.19 197.189 188.834L196.909 189.106C195.477 190.398 193.541 190.713 191.36 190.184C189.024 189.618 186.457 188.086 184.102 185.829C181.747 183.573 180.108 181.073 179.442 178.763C178.779 176.463 179.088 174.4 180.543 172.881C181.622 171.755 182.829 171.633 184.177 171.795C184.874 171.879 185.549 172.029 186.29 172.156C187.007 172.279 187.757 172.371 188.494 172.302L188.494 172.303C189.371 172.222 190.202 172.037 190.976 171.853C191.761 171.667 192.472 171.487 193.162 171.393C193.846 171.299 194.475 171.296 195.076 171.45C195.671 171.602 196.268 171.916 196.876 172.499Z" stroke="black"/>
<path d="M191.298 155.968C191.243 157.02 191.151 158.44 191.01 159.91C190.869 161.382 190.679 162.895 190.426 164.138C190.3 164.76 190.159 165.303 190.006 165.735C189.848 166.18 189.694 166.454 189.568 166.586C188.138 168.079 185.765 168.13 184.276 166.703L184.139 166.566C182.781 165.124 182.778 162.853 184.164 161.407C184.948 160.589 186.938 158.907 188.762 157.409C189.668 156.665 190.524 155.972 191.153 155.466C191.213 155.418 191.272 155.371 191.328 155.326C191.319 155.519 191.31 155.735 191.298 155.968Z" stroke="black"/>
<path d="M213.575 176.952C213.096 177.602 212.441 178.487 211.736 179.423C210.315 181.309 208.719 183.368 207.935 184.186L207.798 184.321C206.357 185.68 204.086 185.685 202.643 184.302C201.151 182.873 201.101 180.5 202.531 179.007C202.658 178.875 202.925 178.71 203.363 178.533C203.788 178.362 204.325 178.199 204.941 178.046C206.173 177.741 207.676 177.486 209.141 177.283C210.604 177.08 212.019 176.929 213.068 176.829C213.301 176.807 213.515 176.789 213.707 176.772C213.665 176.83 213.621 176.89 213.575 176.952Z" stroke="black"/>
<path d="M204.78 156.356C204.514 157.206 204.142 158.357 203.72 159.558C203.298 160.761 202.828 162.009 202.366 163.056C201.893 164.128 201.457 164.918 201.121 165.268C199.691 166.761 197.32 166.813 195.831 165.385C194.336 163.953 194.286 161.58 195.716 160.088C196.052 159.738 196.823 159.27 197.874 158.753C198.902 158.247 200.129 157.725 201.313 157.253C202.497 156.781 203.631 156.362 204.469 156.06C204.631 156.001 204.783 155.948 204.921 155.899C204.878 156.039 204.832 156.192 204.78 156.356Z" stroke="black"/>
<path d="M212.402 163.661C212.136 164.511 211.764 165.661 211.342 166.862C210.92 168.065 210.45 169.313 209.987 170.36C209.514 171.432 209.079 172.222 208.743 172.572C207.312 174.065 204.942 174.117 203.453 172.69C201.963 171.262 201.911 168.888 203.341 167.396L203.488 167.259C203.874 166.928 204.579 166.513 205.498 166.06C206.526 165.553 207.753 165.032 208.937 164.559C210.12 164.087 211.253 163.667 212.091 163.365C212.254 163.306 212.405 163.253 212.543 163.204C212.5 163.344 212.454 163.497 212.402 163.661Z" stroke="black"/>
<path d="M187.329 121.273C187.905 121.825 188.222 122.38 188.387 122.941C188.554 123.509 188.572 124.112 188.511 124.775C188.449 125.446 188.309 126.138 188.173 126.906C188.056 127.567 187.944 128.27 187.908 129.004L187.898 129.321C187.885 130.105 188.035 130.878 188.209 131.609C188.387 132.362 188.584 133.045 188.703 133.746C188.82 134.433 188.851 135.082 188.71 135.711C188.571 136.333 188.258 136.964 187.641 137.608L187.361 137.88C185.929 139.172 183.993 139.487 181.812 138.958C179.476 138.392 176.909 136.86 174.554 134.603C172.2 132.347 170.56 129.847 169.894 127.536C169.231 125.237 169.54 123.173 170.995 121.655C172.075 120.529 173.281 120.407 174.629 120.569C175.326 120.653 176.001 120.803 176.742 120.93C177.459 121.053 178.209 121.145 178.946 121.076L178.946 121.077C179.823 120.996 180.654 120.811 181.428 120.627C182.213 120.441 182.925 120.261 183.615 120.166C184.298 120.073 184.927 120.07 185.528 120.224C186.123 120.376 186.72 120.69 187.329 121.273Z" stroke="black"/>
<path d="M181.75 104.741C181.695 105.794 181.603 107.213 181.463 108.683C181.321 110.156 181.131 111.669 180.878 112.912C180.752 113.533 180.612 114.076 180.459 114.508C180.301 114.954 180.147 115.228 180.02 115.36C178.59 116.852 176.217 116.904 174.728 115.476L174.592 115.339C173.233 113.898 173.23 111.626 174.616 110.18C175.4 109.362 177.391 107.681 179.214 106.182C180.12 105.438 180.976 104.745 181.605 104.24C181.665 104.191 181.724 104.144 181.78 104.099C181.771 104.293 181.763 104.508 181.75 104.741Z" stroke="black"/>
<path d="M204.027 125.726C203.549 126.376 202.894 127.26 202.188 128.197C200.768 130.082 199.171 132.142 198.387 132.959L198.25 133.095C196.809 134.454 194.538 134.459 193.095 133.076C191.603 131.646 191.553 129.273 192.983 127.781C193.11 127.648 193.377 127.483 193.815 127.306C194.24 127.135 194.777 126.972 195.394 126.82C196.625 126.514 198.128 126.259 199.593 126.056C201.056 125.853 202.471 125.702 203.521 125.602C203.753 125.58 203.967 125.562 204.16 125.545C204.117 125.603 204.073 125.663 204.027 125.726Z" stroke="black"/>
<path d="M195.232 105.13C194.966 105.98 194.594 107.13 194.173 108.332C193.75 109.534 193.28 110.782 192.818 111.83C192.345 112.901 191.909 113.691 191.573 114.041C190.143 115.534 187.772 115.586 186.283 114.159C184.788 112.726 184.739 110.354 186.168 108.862C186.504 108.512 187.275 108.044 188.326 107.526C189.354 107.02 190.581 106.498 191.766 106.026C192.949 105.554 194.083 105.135 194.921 104.833C195.084 104.775 195.235 104.721 195.373 104.672C195.33 104.812 195.284 104.966 195.232 105.13Z" stroke="black"/>
<path d="M202.854 112.434C202.588 113.284 202.215 114.434 201.794 115.635C201.371 116.838 200.901 118.086 200.439 119.133C199.966 120.205 199.53 120.995 199.194 121.345C197.764 122.838 195.394 122.89 193.905 121.463C192.414 120.035 192.363 117.661 193.793 116.169L193.939 116.032C194.326 115.7 195.03 115.286 195.95 114.833C196.977 114.326 198.204 113.805 199.389 113.332C200.571 112.86 201.705 112.44 202.543 112.138C202.705 112.079 202.857 112.026 202.995 111.977C202.952 112.117 202.906 112.27 202.854 112.434Z" stroke="black"/>
<path d="M242.698 117.452C243.274 118.004 243.592 118.558 243.757 119.119C243.923 119.687 243.942 120.29 243.881 120.953C243.818 121.624 243.679 122.316 243.543 123.084C243.425 123.745 243.313 124.448 243.278 125.183L243.268 125.499C243.254 126.284 243.404 127.056 243.578 127.788C243.757 128.54 243.954 129.223 244.073 129.924C244.19 130.611 244.22 131.261 244.08 131.889C243.941 132.511 243.628 133.143 243.011 133.787L242.731 134.058C241.299 135.35 239.362 135.666 237.182 135.137C234.846 134.57 232.278 133.038 229.924 130.781C227.569 128.525 225.929 126.025 225.264 123.715C224.601 121.415 224.91 119.352 226.365 117.834C227.444 116.707 228.651 116.585 229.999 116.747C230.695 116.831 231.371 116.981 232.112 117.108C232.829 117.231 233.579 117.323 234.316 117.254L234.316 117.256C235.193 117.174 236.024 116.989 236.798 116.806C237.582 116.62 238.294 116.439 238.984 116.345C239.667 116.251 240.296 116.248 240.897 116.402C241.493 116.554 242.089 116.868 242.698 117.452Z" stroke="black"/>
<path d="M237.12 100.92C237.064 101.973 236.973 103.392 236.832 104.862C236.691 106.334 236.501 107.847 236.248 109.09C236.121 109.712 235.981 110.255 235.828 110.687C235.67 111.133 235.516 111.406 235.39 111.538C233.959 113.031 231.587 113.082 230.097 111.655L229.961 111.518C228.603 110.077 228.6 107.805 229.985 106.359C230.77 105.541 232.76 103.86 234.584 102.361C235.49 101.617 236.345 100.924 236.975 100.418C237.035 100.37 237.094 100.323 237.15 100.278C237.141 100.471 237.132 100.687 237.12 100.92Z" stroke="black"/>
<path d="M259.397 121.905C258.918 122.555 258.263 123.44 257.557 124.376C256.137 126.261 254.54 128.321 253.756 129.138L253.62 129.274C252.178 130.633 249.907 130.638 248.464 129.255C246.972 127.825 246.922 125.452 248.353 123.96C248.479 123.828 248.746 123.662 249.184 123.485C249.61 123.314 250.147 123.152 250.763 122.999C251.994 122.693 253.497 122.439 254.962 122.235C256.426 122.032 257.84 121.882 258.89 121.782C259.122 121.76 259.336 121.742 259.529 121.725C259.486 121.782 259.442 121.843 259.397 121.905Z" stroke="black"/>
<path d="M250.602 101.308C250.336 102.158 249.964 103.309 249.542 104.51C249.12 105.713 248.65 106.961 248.188 108.008C247.714 109.08 247.279 109.87 246.943 110.22C245.512 111.713 243.142 111.765 241.653 110.338C240.158 108.905 240.108 106.533 241.538 105.04C241.874 104.69 242.644 104.223 243.696 103.705C244.723 103.199 245.95 102.677 247.135 102.205C248.318 101.733 249.452 101.314 250.291 101.012C250.453 100.953 250.605 100.9 250.743 100.851C250.7 100.991 250.653 101.144 250.602 101.308Z" stroke="black"/>
<path d="M258.223 108.613C257.957 109.463 257.585 110.613 257.163 111.814C256.74 113.017 256.271 114.265 255.808 115.313C255.335 116.384 254.899 117.174 254.564 117.524C253.133 119.017 250.763 119.069 249.274 117.642C247.783 116.214 247.732 113.84 249.162 112.348L249.308 112.211C249.695 111.88 250.399 111.465 251.319 111.012C252.346 110.506 253.573 109.984 254.758 109.511C255.941 109.039 257.074 108.619 257.912 108.317C258.074 108.258 258.226 108.205 258.364 108.156C258.321 108.296 258.275 108.449 258.223 108.613Z" stroke="black"/>
<path d="M256.062 65.8988C256.638 66.4509 256.956 67.0051 257.121 67.5664C257.288 68.1341 257.306 68.7376 257.245 69.4003C257.182 70.0713 257.043 70.7636 256.907 71.5314C256.79 72.1922 256.678 72.8952 256.642 73.6298L256.632 73.9464C256.619 74.7309 256.769 75.5032 256.943 76.2349C257.121 76.987 257.318 77.6704 257.437 78.3711C257.554 79.0586 257.585 79.7079 257.444 80.3366C257.305 80.9581 256.992 81.5898 256.375 82.2339L256.095 82.5051C254.663 83.7974 252.727 84.1128 250.546 83.5839C248.21 83.0171 245.643 81.4856 243.288 79.2287C240.934 76.9725 239.294 74.4723 238.628 72.162C237.965 69.8622 238.274 67.799 239.729 66.2808C240.808 65.1542 242.015 65.0326 243.363 65.1944C244.06 65.2781 244.735 65.4287 245.476 65.5556C246.193 65.6783 246.943 65.7703 247.68 65.7014L247.68 65.7028C248.557 65.6215 249.388 65.4362 250.162 65.2528C250.947 65.0669 251.659 64.8863 252.349 64.7919C253.032 64.6985 253.661 64.6956 254.262 64.8493C254.857 65.0016 255.454 65.3154 256.062 65.8988Z" stroke="black"/>
<path d="M250.484 49.3669C250.429 50.4193 250.337 51.8385 250.196 53.3086C250.055 54.7812 249.865 56.2941 249.612 57.537C249.486 58.1588 249.345 58.702 249.192 59.1338C249.034 59.5794 248.881 59.8531 248.754 59.9851C247.324 61.4775 244.951 61.5291 243.462 60.1018L243.325 59.9645C241.967 58.5233 241.964 56.2516 243.35 54.8059C244.134 53.9876 246.124 52.3063 247.948 50.8078C248.854 50.0635 249.71 49.3709 250.339 48.8651C250.399 48.8165 250.458 48.7697 250.514 48.7246C250.505 48.9182 250.496 49.1336 250.484 49.3669Z" stroke="black"/>
<path d="M272.761 70.3516C272.282 71.0016 271.627 71.8863 270.922 72.8227C269.502 74.7081 267.905 76.7678 267.121 77.585L266.984 77.7205C265.543 79.0798 263.272 79.0845 261.829 77.7017C260.337 76.2719 260.287 73.899 261.717 72.4065C261.844 72.2744 262.111 72.1089 262.549 71.9323C262.974 71.761 263.511 71.5984 264.127 71.4456C265.359 71.1402 266.862 70.8854 268.327 70.6821C269.79 70.4792 271.205 70.3284 272.254 70.2284C272.487 70.2063 272.701 70.1884 272.894 70.1713C272.851 70.2291 272.807 70.2894 272.761 70.3516Z" stroke="black"/>
<path d="M263.966 49.7552C263.7 50.6053 263.328 51.7556 262.906 52.957C262.484 54.1598 262.014 55.4075 261.552 56.4552C261.079 57.5269 260.643 58.3165 260.307 58.667C258.877 60.1596 256.506 60.2115 255.017 58.7843C253.522 57.3515 253.472 54.9794 254.902 53.4871C255.238 53.137 256.009 52.6694 257.06 52.1517C258.088 51.6457 259.315 51.1239 260.499 50.6516C261.683 50.1798 262.817 49.7605 263.655 49.4586C263.818 49.4003 263.969 49.3468 264.107 49.2978C264.064 49.4377 264.018 49.591 263.966 49.7552Z" stroke="black"/>
<path d="M271.588 57.0601C271.322 57.9101 270.95 59.0599 270.528 60.2613C270.106 61.464 269.636 62.7118 269.173 63.7594C268.7 64.8311 268.265 65.6207 267.929 65.9712C266.498 67.4639 264.128 67.5161 262.639 66.0893C261.149 64.6608 261.097 62.2871 262.527 60.7947L262.674 60.6576C263.06 60.3265 263.765 59.9118 264.684 59.4586C265.712 58.9524 266.939 58.4305 268.123 57.9578C269.306 57.4858 270.439 57.0657 271.278 56.7635C271.44 56.7052 271.591 56.6517 271.729 56.6027C271.686 56.7426 271.64 56.8959 271.588 57.0601Z" stroke="black"/>
<path d="M313.344 58.2621C313.92 58.8142 314.238 59.3684 314.403 59.9297C314.569 60.4974 314.588 61.1008 314.527 61.7636C314.464 62.4346 314.325 63.1268 314.189 63.8947C314.071 64.5555 313.959 65.2584 313.924 65.9931L313.914 66.3097C313.9 67.0942 314.05 67.8665 314.224 68.5982C314.403 69.3503 314.6 70.0337 314.719 70.7344C314.836 71.4219 314.866 72.0712 314.726 72.6999C314.587 73.3213 314.274 73.9531 313.657 74.5972L313.377 74.8684C311.945 76.1607 310.008 76.4761 307.828 75.9472C305.492 75.3804 302.924 73.8488 300.57 71.592C298.215 69.3358 296.575 66.8356 295.91 64.5252C295.247 62.2254 295.556 60.1623 297.011 58.6441C298.09 57.5175 299.297 57.3958 300.645 57.5577C301.341 57.6413 302.017 57.792 302.758 57.9189C303.475 58.0416 304.225 58.1335 304.962 58.0647L304.962 58.0661C305.839 57.9847 306.67 57.7995 307.444 57.6161C308.228 57.4302 308.94 57.2496 309.63 57.1552C310.313 57.0618 310.942 57.0589 311.543 57.2126C312.139 57.3648 312.735 57.6786 313.344 58.2621Z" stroke="black"/>
<path d="M307.766 41.7302C307.71 42.7826 307.619 44.2018 307.478 45.6719C307.337 47.1445 307.147 48.6573 306.894 49.9003C306.767 50.5221 306.627 51.0652 306.474 51.4971C306.316 51.9427 306.162 52.2163 306.036 52.3484C304.605 53.8408 302.233 53.8924 300.743 52.4651L300.607 52.3278C299.249 50.8866 299.246 48.6149 300.631 47.1692C301.416 46.3509 303.406 44.6696 305.23 43.1711C306.136 42.4268 306.991 41.7342 307.621 41.2284C307.681 41.1798 307.74 41.133 307.796 41.0879C307.787 41.2815 307.778 41.4968 307.766 41.7302Z" stroke="black"/>
<path d="M330.043 62.7149C329.564 63.3649 328.909 64.2496 328.204 65.1859C326.783 67.0714 325.187 69.1311 324.403 69.9483L324.266 70.0838C322.824 71.4431 320.553 71.4478 319.11 70.065C317.618 68.6352 317.569 66.2622 318.999 64.7698C319.126 64.6377 319.392 64.4722 319.831 64.2955C320.256 64.1243 320.793 63.9617 321.409 63.8089C322.64 63.5034 324.143 63.2487 325.609 63.0454C327.072 62.8425 328.487 62.6916 329.536 62.5917C329.768 62.5696 329.983 62.5517 330.175 62.5346C330.133 62.5923 330.089 62.6527 330.043 62.7149Z" stroke="black"/>
<path d="M321.248 42.119C320.982 42.969 320.61 44.1193 320.188 45.3208C319.766 46.5236 319.296 47.7713 318.834 48.8189C318.36 49.8907 317.925 50.6803 317.589 51.0308C316.158 52.5234 313.788 52.5753 312.299 51.1481C310.804 49.7152 310.754 47.3431 312.184 45.8509C312.52 45.5008 313.29 45.0331 314.342 44.5155C315.369 44.0095 316.596 43.4877 317.781 43.0153C318.964 42.5436 320.098 42.1242 320.937 41.8224C321.099 41.764 321.251 41.7106 321.389 41.6615C321.346 41.8014 321.299 41.9548 321.248 42.119Z" stroke="black"/>
<path d="M328.869 49.4239C328.603 50.2739 328.231 51.4237 327.809 52.625C327.386 53.8278 326.917 55.0755 326.454 56.1232C325.981 57.1949 325.545 57.9845 325.21 58.335C323.779 59.8277 321.409 59.8799 319.92 58.453C318.429 57.0246 318.378 54.6509 319.808 53.1585L319.954 53.0214C320.341 52.6902 321.045 52.2755 321.965 51.8224C322.992 51.3161 324.219 50.7943 325.404 50.3216C326.587 49.8496 327.72 49.4294 328.558 49.1273C328.72 49.0689 328.872 49.0155 329.01 48.9664C328.967 49.1063 328.921 49.2597 328.869 49.4239Z" stroke="black"/>
<path d="M210.787 289.973C210.911 289.825 211.092 289.698 211.371 289.617L211.371 289.616C211.653 289.535 211.962 289.643 212.412 290.009C212.629 290.186 212.846 290.396 213.084 290.625C213.258 290.792 213.444 290.969 213.636 291.133L213.831 291.293L213.833 291.294C214.65 291.928 215.391 292.559 215.926 293.176C216.403 293.726 216.665 294.208 216.723 294.625L216.735 294.799C216.736 295.538 216.563 295.946 216.305 296.232C216.095 296.465 215.798 296.653 215.38 296.849L214.92 297.048C214.22 297.336 213.679 297.544 213.25 297.541C213.059 297.539 212.916 297.493 212.797 297.404C212.673 297.311 212.531 297.138 212.404 296.809C212.251 296.404 211.934 295.732 211.626 295.018C211.307 294.281 210.975 293.453 210.752 292.655C210.526 291.846 210.428 291.127 210.524 290.587C210.571 290.325 210.661 290.124 210.787 289.973Z" stroke="black"/>
<path d="M212.022 301.108C212.237 300.885 212.641 300.745 213.274 300.747C213.892 300.749 214.633 300.887 215.395 301.103C216.733 301.483 218.046 302.08 218.742 302.48L219 302.638C219.244 302.801 219.372 302.971 219.437 303.13C219.503 303.291 219.52 303.479 219.483 303.698C219.415 304.097 219.175 304.551 218.836 304.99L218.686 305.177C218.341 305.588 217.739 305.905 217.059 306.017C216.467 306.114 215.872 306.047 215.398 305.805L215.204 305.692L215.202 305.691L214.955 305.519C214.329 305.063 213.375 304.24 212.676 303.365C212.275 302.862 211.988 302.38 211.874 301.97C211.779 301.628 211.812 301.382 211.955 301.188L212.022 301.108Z" stroke="black"/>
<path d="M225.961 290.132C226.237 289.697 226.526 289.425 226.809 289.303L226.93 289.259L226.93 289.26C227.214 289.179 227.521 289.27 227.892 289.666C228.267 290.065 228.618 290.693 228.928 291.431C229.468 292.718 229.828 294.209 229.972 295.042L230.021 295.356L230.021 295.356C230.092 295.903 229.849 296.397 229.4 296.783C229.001 297.125 228.473 297.35 227.971 297.412L227.758 297.428L227.756 297.428L227.553 297.424C226.532 297.347 225.47 296.468 225 295.26C224.907 295.021 224.855 294.557 224.888 293.931C224.92 293.322 225.029 292.62 225.213 291.94C225.398 291.258 225.652 290.621 225.961 290.132Z" stroke="black"/>
<path d="M216.898 286.004L216.898 286.005C217.28 285.818 217.722 285.899 218.334 286.251C218.633 286.423 218.942 286.642 219.271 286.884C219.431 287.002 219.598 287.126 219.767 287.25L220.28 287.612C220.637 287.853 220.99 288.063 221.316 288.253C221.647 288.446 221.939 288.613 222.2 288.777C222.68 289.08 222.926 289.306 223.026 289.506L223.06 289.591C223.401 290.704 222.83 291.673 221.789 292.243L221.574 292.351C220.897 292.668 220.271 292.953 219.739 293.013C219.487 293.042 219.293 293.014 219.143 292.942C219.035 292.89 218.921 292.802 218.814 292.646L218.71 292.465C218.522 292.087 218.157 291.505 217.794 290.89C217.42 290.254 217.024 289.544 216.727 288.849C216.426 288.144 216.252 287.507 216.272 287.005C216.281 286.762 216.335 286.567 216.428 286.412C216.519 286.26 216.663 286.119 216.898 286.004Z" stroke="black"/>
<path d="M209.557 289.105C209.838 288.887 210.017 288.648 209.347 287.782C208.676 286.917 207.409 285.753 207.128 285.971C206.845 286.19 207.657 287.706 208.328 288.572C208.999 289.437 209.276 289.323 209.557 289.105Z" fill="black"/>
<path d="M210.561 300.398C210.84 300.182 211.021 299.941 210.35 299.076C209.679 298.21 208.413 297.046 208.131 297.264C207.847 297.484 208.66 299 209.33 299.866C210.001 300.732 210.277 300.618 210.561 300.398Z" fill="black"/>
<path d="M215.642 284.916C215.923 284.698 216.104 284.457 215.433 283.591C214.762 282.725 213.495 281.562 213.213 281.781C212.931 281.999 213.742 283.516 214.413 284.381C215.085 285.247 215.362 285.133 215.642 284.916Z" fill="black"/>
<path d="M224.114 284.665C223.833 284.883 224.643 286.4 225.315 287.266C225.985 288.13 226.261 288.018 226.543 287.799C226.824 287.581 227.004 287.342 226.334 286.476C225.662 285.61 224.395 284.447 224.114 284.665Z" fill="black"/>
<path d="M252.792 316.705C252.915 316.557 253.097 316.43 253.376 316.349L253.375 316.348C253.657 316.268 253.967 316.376 254.416 316.741C254.633 316.918 254.85 317.129 255.089 317.358C255.262 317.524 255.448 317.701 255.641 317.865L255.835 318.026L255.837 318.027C256.654 318.66 257.396 319.291 257.931 319.908C258.407 320.459 258.67 320.941 258.727 321.357L258.74 321.531C258.74 322.271 258.567 322.678 258.31 322.964C258.099 323.197 257.802 323.386 257.384 323.581L256.925 323.78C256.225 324.068 255.683 324.277 255.254 324.273C255.063 324.272 254.92 324.226 254.801 324.136C254.677 324.043 254.535 323.871 254.409 323.541C254.255 323.137 253.938 322.464 253.63 321.75C253.312 321.013 252.98 320.185 252.757 319.388C252.53 318.578 252.432 317.859 252.529 317.319C252.576 317.058 252.665 316.856 252.792 316.705Z" stroke="black"/>
<path d="M254.026 327.84C254.24 327.618 254.645 327.478 255.278 327.48C255.896 327.482 256.637 327.619 257.399 327.836C258.737 328.216 260.05 328.812 260.746 329.213L261.004 329.371C261.248 329.533 261.375 329.703 261.441 329.863C261.507 330.024 261.524 330.211 261.487 330.431C261.419 330.83 261.178 331.284 260.84 331.723L260.69 331.91C260.345 332.321 259.743 332.638 259.063 332.749C258.47 332.846 257.876 332.779 257.402 332.538L257.208 332.424L257.206 332.423L256.959 332.251C256.333 331.796 255.379 330.972 254.68 330.097C254.278 329.594 253.992 329.112 253.878 328.702C253.783 328.36 253.816 328.115 253.958 327.921L254.026 327.84Z" stroke="black"/>
<path d="M267.965 316.864C268.241 316.429 268.53 316.157 268.813 316.035L268.933 315.991L268.934 315.992C269.218 315.911 269.525 316.002 269.896 316.398C270.27 316.797 270.622 317.425 270.932 318.163C271.472 319.45 271.832 320.941 271.976 321.774L272.025 322.088L272.024 322.088C272.096 322.635 271.853 323.129 271.404 323.515C271.005 323.857 270.477 324.082 269.975 324.144L269.761 324.16L269.76 324.16L269.557 324.155C268.536 324.079 267.474 323.2 267.004 321.991C266.911 321.753 266.858 321.289 266.892 320.662C266.924 320.054 267.033 319.351 267.217 318.672C267.402 317.989 267.656 317.353 267.965 316.864Z" stroke="black"/>
<path d="M258.901 312.736L258.902 312.737C259.284 312.55 259.726 312.631 260.338 312.983C260.637 313.155 260.946 313.374 261.275 313.616C261.435 313.734 261.602 313.859 261.771 313.983L262.284 314.345C262.641 314.585 262.994 314.796 263.32 314.985C263.651 315.179 263.943 315.345 264.204 315.51C264.684 315.813 264.93 316.038 265.03 316.239L265.064 316.323C265.405 317.437 264.834 318.406 263.793 318.975L263.578 319.084C262.901 319.401 262.275 319.685 261.743 319.746C261.491 319.775 261.297 319.747 261.147 319.674C261.038 319.622 260.925 319.534 260.818 319.378L260.714 319.197C260.526 318.82 260.161 318.237 259.798 317.622C259.424 316.986 259.028 316.277 258.731 315.582C258.43 314.876 258.256 314.24 258.275 313.738C258.285 313.495 258.339 313.299 258.432 313.144C258.523 312.993 258.667 312.851 258.901 312.736Z" stroke="black"/>
<path d="M251.561 315.837C251.843 315.619 252.022 315.379 251.351 314.514C250.68 313.649 249.414 312.485 249.132 312.703C248.85 312.922 249.661 314.438 250.332 315.304C251.003 316.169 251.28 316.055 251.561 315.837Z" fill="black"/>
<path d="M252.564 327.131C252.844 326.914 253.025 326.673 252.354 325.808C251.683 324.942 250.416 323.778 250.135 323.996C249.851 324.216 250.663 325.733 251.334 326.598C252.005 327.464 252.281 327.351 252.564 327.131Z" fill="black"/>
<path d="M257.646 311.648C257.927 311.43 258.108 311.189 257.437 310.323C256.766 309.457 255.499 308.294 255.217 308.513C254.935 308.731 255.746 310.248 256.417 311.113C257.089 311.979 257.366 311.864 257.646 311.648Z" fill="black"/>
<path d="M266.118 311.397C265.838 311.615 266.648 313.131 267.319 313.998C267.989 314.862 268.265 314.75 268.547 314.531C268.829 314.313 269.009 314.074 268.338 313.208C267.667 312.342 266.4 311.179 266.118 311.397Z" fill="black"/>
<path d="M268.068 356.802C268.191 356.654 268.373 356.527 268.651 356.446L268.651 356.445C268.933 356.364 269.243 356.472 269.692 356.838C269.909 357.015 270.126 357.226 270.365 357.454C270.538 357.621 270.724 357.798 270.916 357.962L271.111 358.123L271.113 358.124C271.93 358.757 272.672 359.388 273.206 360.005C273.683 360.555 273.945 361.037 274.003 361.454L274.016 361.628C274.016 362.368 273.843 362.775 273.585 363.061C273.375 363.294 273.078 363.482 272.66 363.678L272.201 363.877C271.501 364.165 270.959 364.373 270.53 364.37C270.339 364.368 270.196 364.322 270.077 364.233C269.953 364.14 269.811 363.968 269.685 363.638C269.531 363.234 269.214 362.561 268.906 361.847C268.588 361.11 268.256 360.282 268.033 359.484C267.806 358.675 267.708 357.956 267.805 357.416C267.851 357.154 267.941 356.953 268.068 356.802Z" stroke="black"/>
<path d="M269.302 367.937C269.517 367.714 269.921 367.574 270.555 367.576C271.173 367.578 271.913 367.715 272.675 367.932C274.013 368.312 275.326 368.908 276.022 369.309L276.28 369.467C276.525 369.629 276.652 369.8 276.717 369.959C276.783 370.12 276.801 370.308 276.763 370.527C276.695 370.926 276.455 371.38 276.117 371.819L275.966 372.006C275.621 372.417 275.019 372.734 274.34 372.845C273.747 372.943 273.152 372.875 272.678 372.634L272.484 372.52L272.482 372.519L272.235 372.348C271.609 371.892 270.655 371.068 269.956 370.193C269.555 369.691 269.269 369.209 269.155 368.798C269.06 368.456 269.092 368.211 269.235 368.017L269.302 367.937Z" stroke="black"/>
<path d="M283.242 356.96C283.517 356.525 283.807 356.254 284.089 356.131L284.21 356.087L284.21 356.088C284.494 356.007 284.801 356.098 285.172 356.494C285.547 356.893 285.898 357.521 286.209 358.26C286.749 359.546 287.108 361.037 287.252 361.87L287.302 362.184L287.301 362.185C287.372 362.731 287.129 363.225 286.68 363.611C286.282 363.953 285.753 364.178 285.251 364.24L285.038 364.256L285.036 364.256L284.833 364.252C283.812 364.175 282.75 363.296 282.28 362.088C282.188 361.85 282.135 361.385 282.168 360.759C282.2 360.15 282.309 359.448 282.493 358.768C282.678 358.086 282.932 357.449 283.242 356.96Z" stroke="black"/>
<path d="M274.178 352.833L274.178 352.834C274.561 352.647 275.003 352.728 275.615 353.08C275.914 353.252 276.223 353.471 276.551 353.713C276.712 353.831 276.878 353.955 277.048 354.079L277.561 354.441C277.917 354.682 278.27 354.892 278.596 355.082C278.927 355.275 279.22 355.442 279.48 355.606C279.961 355.909 280.207 356.135 280.306 356.335L280.341 356.42C280.681 357.533 280.11 358.502 279.069 359.072L278.854 359.181C278.178 359.498 277.551 359.782 277.02 359.842C276.767 359.871 276.574 359.844 276.423 359.771C276.315 359.719 276.201 359.631 276.094 359.475L275.99 359.294C275.802 358.916 275.437 358.334 275.075 357.719C274.7 357.083 274.304 356.373 274.007 355.678C273.706 354.973 273.532 354.336 273.552 353.834C273.561 353.591 273.615 353.396 273.708 353.241C273.8 353.089 273.944 352.948 274.178 352.833Z" stroke="black"/>
<path d="M266.838 355.934C267.119 355.716 267.298 355.476 266.627 354.611C265.957 353.745 264.69 352.581 264.409 352.799C264.126 353.018 264.938 354.535 265.609 355.4C266.279 356.266 266.557 356.152 266.838 355.934Z" fill="black"/>
<path d="M267.841 367.227C268.121 367.01 268.301 366.769 267.63 365.904C266.96 365.038 265.693 363.874 265.412 364.093C265.128 364.313 265.94 365.829 266.611 366.694C267.282 367.56 267.557 367.447 267.841 367.227Z" fill="black"/>
<path d="M272.922 351.745C273.204 351.527 273.384 351.286 272.713 350.42C272.042 349.555 270.775 348.391 270.493 348.61C270.212 348.828 271.022 350.345 271.693 351.211C272.366 352.076 272.642 351.962 272.922 351.745Z" fill="black"/>
<path d="M281.394 351.493C281.114 351.711 281.924 353.228 282.595 354.094C283.265 354.959 283.541 354.846 283.823 354.627C284.105 354.409 284.285 354.17 283.614 353.304C282.942 352.438 281.676 351.275 281.394 351.493Z" fill="black"/>
<path d="M166.872 261.333C166.996 261.185 167.177 261.058 167.456 260.977L167.455 260.976C167.737 260.896 168.047 261.004 168.496 261.369C168.713 261.546 168.93 261.757 169.169 261.986C169.343 262.152 169.528 262.329 169.721 262.493L169.915 262.654L169.917 262.655C170.734 263.288 171.476 263.919 172.011 264.536C172.488 265.086 172.75 265.569 172.807 265.985L172.82 266.159C172.82 266.899 172.647 267.306 172.39 267.592C172.179 267.825 171.883 268.014 171.464 268.209L171.005 268.408C170.305 268.696 169.763 268.905 169.334 268.901C169.143 268.9 169.001 268.854 168.881 268.764C168.757 268.671 168.615 268.499 168.489 268.169C168.335 267.765 168.018 267.092 167.71 266.378C167.392 265.641 167.06 264.813 166.837 264.016C166.61 263.206 166.512 262.487 166.609 261.947C166.656 261.685 166.745 261.484 166.872 261.333Z" stroke="black"/>
<path d="M168.106 272.468C168.321 272.245 168.726 272.105 169.359 272.107C169.977 272.109 170.717 272.246 171.479 272.463C172.817 272.843 174.131 273.439 174.826 273.84L175.084 273.998C175.329 274.161 175.456 274.331 175.521 274.49C175.587 274.651 175.605 274.839 175.568 275.058C175.5 275.457 175.259 275.911 174.921 276.35L174.77 276.537C174.425 276.948 173.823 277.265 173.144 277.377C172.551 277.474 171.956 277.407 171.483 277.165L171.288 277.052L171.286 277.051L171.039 276.879C170.413 276.423 169.46 275.6 168.761 274.725C168.359 274.222 168.073 273.74 167.959 273.33C167.864 272.988 167.896 272.742 168.039 272.548L168.106 272.468Z" stroke="black"/>
<path d="M182.046 261.492C182.321 261.057 182.611 260.785 182.894 260.663L183.014 260.619L183.015 260.62C183.298 260.539 183.606 260.63 183.977 261.026C184.351 261.425 184.703 262.053 185.013 262.791C185.553 264.077 185.913 265.569 186.057 266.402L186.106 266.716L186.105 266.716C186.176 267.263 185.933 267.757 185.484 268.143C185.086 268.485 184.557 268.71 184.056 268.772L183.842 268.788L183.841 268.788L183.637 268.783C182.616 268.707 181.554 267.828 181.084 266.619C180.992 266.381 180.939 265.917 180.972 265.29C181.004 264.682 181.114 263.979 181.297 263.3C181.482 262.617 181.736 261.981 182.046 261.492Z" stroke="black"/>
<path d="M172.982 257.364L172.983 257.365C173.365 257.178 173.807 257.259 174.419 257.611C174.718 257.783 175.027 258.002 175.355 258.244C175.516 258.362 175.683 258.487 175.852 258.61L176.365 258.973C176.721 259.213 177.075 259.423 177.4 259.613C177.731 259.806 178.024 259.973 178.285 260.138C178.765 260.441 179.011 260.666 179.11 260.867L179.145 260.951C179.485 262.064 178.914 263.034 177.873 263.603L177.658 263.712C176.982 264.029 176.355 264.313 175.824 264.374C175.571 264.403 175.378 264.375 175.227 264.302C175.119 264.25 175.006 264.162 174.899 264.006L174.794 263.825C174.607 263.447 174.241 262.865 173.879 262.25C173.504 261.614 173.108 260.905 172.811 260.21C172.51 259.504 172.336 258.868 172.356 258.366C172.366 258.122 172.42 257.927 172.513 257.772C172.604 257.621 172.748 257.479 172.982 257.364Z" stroke="black"/>
<path d="M165.642 260.465C165.923 260.247 166.102 260.007 165.431 259.142C164.76 258.277 163.494 257.113 163.212 257.331C162.93 257.549 163.742 259.066 164.412 259.932C165.083 260.797 165.36 260.683 165.642 260.465Z" fill="black"/>
<path d="M166.645 271.758C166.925 271.541 167.105 271.301 166.435 270.435C165.764 269.57 164.497 268.406 164.216 268.624C163.932 268.844 164.744 270.36 165.415 271.226C166.086 272.091 166.361 271.978 166.645 271.758Z" fill="black"/>
<path d="M171.727 256.276C172.008 256.058 172.189 255.817 171.517 254.951C170.846 254.085 169.58 252.922 169.297 253.141C169.016 253.359 169.827 254.876 170.498 255.741C171.17 256.607 171.447 256.492 171.727 256.276Z" fill="black"/>
<path d="M180.198 256.025C179.917 256.243 180.727 257.759 181.399 258.626C182.069 259.49 182.345 259.378 182.627 259.159C182.908 258.941 183.088 258.702 182.418 257.836C181.746 256.97 180.479 255.807 180.198 256.025Z" fill="black"/>
<path d="M62.2673 173.023C62.391 172.875 62.5725 172.748 62.8512 172.667L62.8506 172.666C63.1328 172.585 63.4424 172.693 63.8915 173.059C64.109 173.236 64.3258 173.446 64.5644 173.675C64.7381 173.842 64.9238 174.018 65.1161 174.183L65.3109 174.343L65.3128 174.344C66.1295 174.978 66.8712 175.609 67.4061 176.226C67.883 176.776 68.1451 177.258 68.2026 177.674L68.2153 177.849C68.2155 178.588 68.0428 178.996 67.7852 179.282C67.575 179.515 67.2781 179.703 66.8599 179.899L66.4003 180.098C65.7003 180.386 65.1589 180.594 64.7299 180.591C64.5387 180.589 64.396 180.543 64.2767 180.454C64.1526 180.361 64.011 180.188 63.8845 179.858C63.7308 179.454 63.414 178.782 63.1056 178.068C62.7873 177.33 62.4554 176.502 62.2322 175.705C62.0057 174.896 61.9079 174.177 62.0043 173.637C62.0511 173.375 62.141 173.174 62.2673 173.023Z" stroke="black"/>
<path d="M63.5018 184.158C63.7165 183.935 64.1211 183.795 64.7544 183.797C65.3724 183.799 66.1126 183.936 66.8748 184.153C68.2126 184.533 69.5262 185.129 70.2216 185.53L70.48 185.688C70.7243 185.851 70.8515 186.021 70.9167 186.18C70.9828 186.341 71.0004 186.529 70.963 186.748C70.8951 187.147 70.6545 187.601 70.3162 188.04L70.1658 188.227C69.8207 188.638 69.2189 188.955 68.5393 189.067C67.9465 189.164 67.3517 189.097 66.8781 188.855L66.6837 188.742L66.6817 188.741L66.4348 188.569C65.8087 188.113 64.8552 187.289 64.1561 186.414C63.7545 185.912 63.4683 185.43 63.3543 185.02C63.2592 184.677 63.2919 184.432 63.4345 184.238L63.5018 184.158Z" stroke="black"/>
<path d="M77.4419 173.181C77.7174 172.746 78.0068 172.475 78.2896 172.352L78.41 172.308L78.4106 172.309C78.6941 172.228 79.0017 172.32 79.3727 172.715C79.7471 173.114 80.0986 173.742 80.4087 174.481C80.9489 175.767 81.3087 177.258 81.4525 178.091L81.5018 178.405L81.5011 178.406C81.5723 178.953 81.3294 179.446 80.8804 179.832C80.4819 180.174 79.9534 180.399 79.4517 180.461L79.238 180.477L79.2367 180.477L79.0333 180.473C78.0121 180.397 76.9502 179.517 76.4801 178.309C76.3878 178.071 76.3351 177.606 76.3681 176.98C76.4002 176.372 76.5096 175.669 76.6935 174.989C76.8781 174.307 77.1322 173.67 77.4419 173.181Z" stroke="black"/>
<path d="M68.3775 169.054L68.3781 169.054C68.7604 168.867 69.2025 168.949 69.8142 169.3C70.1134 169.472 70.4222 169.692 70.7509 169.933C70.9115 170.052 71.0781 170.176 71.2474 170.3L71.7604 170.662C72.117 170.903 72.4701 171.113 72.7957 171.303C73.1267 171.496 73.4193 171.662 73.6801 171.827C74.1604 172.13 74.4063 172.356 74.5058 172.556L74.5403 172.64C74.8808 173.754 74.3099 174.723 73.2687 175.293L73.0538 175.401C72.3772 175.718 71.7508 176.002 71.2193 176.063C70.9666 176.092 70.7734 176.064 70.6228 175.992C70.5145 175.94 70.4011 175.852 70.2942 175.695L70.1898 175.514C70.0021 175.137 69.6368 174.555 69.2743 173.939C68.8998 173.304 68.5036 172.594 68.2069 171.899C67.9058 171.194 67.7319 170.557 67.7515 170.055C67.7611 169.812 67.8151 169.617 67.9081 169.462C67.9992 169.31 68.1432 169.168 68.3775 169.054Z" stroke="black"/>
<path d="M61.0376 172.155C61.3189 171.937 61.4977 171.697 60.8272 170.832C60.1563 169.966 58.8896 168.802 58.6083 169.02C58.3259 169.239 59.1375 170.756 59.8085 171.621C60.479 172.486 60.7562 172.373 61.0376 172.155Z" fill="black"/>
<path d="M62.0405 183.448C62.3203 183.231 62.5007 182.991 61.8302 182.125C61.1592 181.26 59.8925 180.096 59.6112 180.314C59.3274 180.534 60.1395 182.05 60.8104 182.916C61.4814 183.781 61.7567 183.668 62.0405 183.448Z" fill="black"/>
<path d="M67.122 167.965C67.4033 167.747 67.5841 167.507 66.9128 166.64C66.2418 165.775 64.975 164.612 64.6927 164.831C64.4114 165.049 65.2221 166.565 65.893 167.431C66.5654 168.296 66.8422 168.182 67.122 167.965Z" fill="black"/>
<path d="M75.5941 167.714C75.3133 167.932 76.1235 169.449 76.7948 170.315C77.4649 171.18 77.7407 171.067 78.023 170.848C78.3043 170.63 78.4845 170.391 77.8135 169.526C77.1422 168.659 75.8754 167.496 75.5941 167.714Z" fill="black"/>
<path d="M59.2678 126.023C59.3915 125.875 59.573 125.748 59.8517 125.667L59.8511 125.666C60.1333 125.585 60.4429 125.693 60.892 126.059C61.1094 126.236 61.3263 126.447 61.5649 126.676C61.7386 126.842 61.9242 127.019 62.1166 127.183L62.3113 127.344L62.3133 127.345C63.13 127.978 63.8717 128.609 64.4066 129.226C64.8835 129.776 65.1456 130.258 65.2031 130.675L65.2158 130.849C65.216 131.589 65.0433 131.996 64.7857 132.282C64.5755 132.515 64.2786 132.704 63.8604 132.899L63.4008 133.098C62.7008 133.386 62.1594 133.595 61.7304 133.591C61.5392 133.589 61.3965 133.544 61.2772 133.454C61.1531 133.361 61.0115 133.189 60.885 132.859C60.7313 132.455 60.4145 131.782 60.1061 131.068C59.7878 130.331 59.4559 129.503 59.2327 128.706C59.0062 127.896 58.9084 127.177 59.0048 126.637C59.0516 126.375 59.1415 126.174 59.2678 126.023Z" stroke="black"/>
<path d="M60.5023 137.158C60.717 136.935 61.1216 136.795 61.7549 136.797C62.3729 136.799 63.1131 136.936 63.8753 137.153C65.2131 137.533 66.5267 138.129 67.2221 138.53L67.4805 138.688C67.7248 138.851 67.852 139.021 67.9172 139.18C67.9833 139.341 68.0008 139.529 67.9635 139.748C67.8956 140.147 67.655 140.601 67.3167 141.04L67.1663 141.227C66.8212 141.638 66.2194 141.955 65.5398 142.067C64.947 142.164 64.3522 142.097 63.8786 141.855L63.6842 141.742L63.6822 141.741L63.4353 141.569C62.8092 141.113 61.8557 140.289 61.1566 139.414C60.755 138.912 60.4688 138.43 60.3548 138.02C60.2597 137.677 60.2924 137.432 60.435 137.238L60.5023 137.158Z" stroke="black"/>
<path d="M74.4419 126.182C74.7174 125.747 75.0068 125.475 75.2896 125.353L75.41 125.309L75.4106 125.31C75.6941 125.229 76.0017 125.32 76.3727 125.716C76.7471 126.115 77.0986 126.743 77.4087 127.481C77.9489 128.767 78.3087 130.259 78.4525 131.092L78.5018 131.406L78.5011 131.406C78.5723 131.953 78.3294 132.447 77.8804 132.833C77.4819 133.175 76.9534 133.4 76.4517 133.462L76.238 133.478L76.2367 133.478L76.0333 133.473C75.0121 133.397 73.9502 132.518 73.4801 131.309C73.3878 131.071 73.3351 130.607 73.3681 129.98C73.4002 129.372 73.5096 128.669 73.6935 127.99C73.8781 127.307 74.1322 126.67 74.4419 126.182Z" stroke="black"/>
<path d="M65.378 122.054L65.3786 122.055C65.7609 121.868 66.203 121.949 66.8147 122.301C67.1139 122.473 67.4227 122.692 67.7514 122.934C67.912 123.052 68.0786 123.177 68.2479 123.3L68.7609 123.663C69.1175 123.903 69.4706 124.113 69.7962 124.303C70.1272 124.496 70.4197 124.663 70.6806 124.828C71.1609 125.131 71.4068 125.356 71.5063 125.557L71.5408 125.641C71.8812 126.754 71.3104 127.724 70.2692 128.293L70.0542 128.402C69.3777 128.719 68.7513 129.003 68.2198 129.064C67.9671 129.092 67.7739 129.065 67.6232 128.992C67.515 128.94 67.4016 128.852 67.2947 128.696L67.1902 128.515C67.0026 128.137 66.6373 127.555 66.2748 126.94C65.9003 126.304 65.5041 125.595 65.2074 124.899C64.9063 124.194 64.7323 123.558 64.752 123.056C64.7615 122.812 64.8156 122.617 64.9086 122.462C64.9997 122.311 65.1437 122.169 65.378 122.054Z" stroke="black"/>
<path d="M58.0376 125.155C58.3189 124.937 58.4977 124.697 57.8272 123.832C57.1563 122.966 55.8896 121.803 55.6083 122.021C55.3259 122.239 56.1375 123.756 56.8085 124.622C57.479 125.487 57.7562 125.373 58.0376 125.155Z" fill="black"/>
<path d="M59.041 136.448C59.3208 136.231 59.5012 135.991 58.8307 135.125C58.1597 134.26 56.893 133.096 56.6117 133.314C56.3279 133.534 57.14 135.05 57.8109 135.916C58.4818 136.781 58.7572 136.668 59.041 136.448Z" fill="black"/>
<path d="M64.1225 120.966C64.4038 120.747 64.5846 120.507 63.9133 119.641C63.2423 118.775 61.9755 117.612 61.6932 117.831C61.4119 118.049 62.2226 119.566 62.8935 120.431C63.5659 121.297 63.8427 121.182 64.1225 120.966Z" fill="black"/>
<path d="M72.5941 120.715C72.3133 120.932 73.1235 122.449 73.7948 123.316C74.4649 124.18 74.7407 124.068 75.023 123.849C75.3043 123.631 75.4845 123.392 74.8135 122.526C74.1422 121.66 72.8754 120.497 72.5941 120.715Z" fill="black"/>
<path d="M117.467 34.4446C117.463 34.6374 117.401 34.85 117.234 35.0877L117.235 35.0879C117.066 35.3274 116.757 35.4367 116.177 35.4321C115.897 35.4298 115.596 35.4012 115.267 35.3718C115.027 35.3503 114.772 35.3285 114.519 35.3205L114.267 35.317L114.264 35.3175C113.231 35.334 112.258 35.3051 111.454 35.158C110.738 35.0269 110.232 34.8145 109.927 34.5256L109.808 34.3976C109.345 33.8204 109.225 33.3944 109.248 33.0103C109.266 32.697 109.38 32.3642 109.584 31.9502L109.818 31.5073C110.185 30.8451 110.477 30.3438 110.814 30.0784C110.964 29.96 111.104 29.9066 111.253 29.9018C111.408 29.8967 111.626 29.9428 111.931 30.1212C112.304 30.3405 112.972 30.6673 113.659 31.0318C114.368 31.408 115.145 31.8466 115.818 32.3293C116.501 32.8193 117.027 33.3194 117.289 33.801C117.416 34.0346 117.472 34.2477 117.467 34.4446Z" stroke="black"/>
<path d="M109.542 26.5265C109.514 26.8346 109.285 27.1966 108.79 27.5911C108.306 27.976 107.643 28.3317 106.912 28.6392C105.631 29.179 104.233 29.5351 103.439 29.6572L103.139 29.6954C102.847 29.7213 102.641 29.6681 102.491 29.5847C102.338 29.5001 102.207 29.3646 102.099 29.1701C101.903 28.8163 101.807 28.3117 101.796 27.7574L101.797 27.5174C101.809 26.9808 102.081 26.3574 102.541 25.8454C102.943 25.3988 103.449 25.0794 103.97 24.9716L104.192 24.9388L104.195 24.9383L104.495 24.918C105.268 24.882 106.527 24.9287 107.62 25.1745C108.248 25.3157 108.773 25.5128 109.118 25.7617C109.406 25.9692 109.534 26.1811 109.544 26.4216L109.542 26.5265Z" stroke="black"/>
<path d="M105.526 43.8089C105.583 44.3206 105.527 44.7134 105.383 44.9857L105.316 45.0953L105.315 45.095C105.145 45.3354 104.848 45.4565 104.311 45.3798C103.769 45.3022 103.102 45.032 102.398 44.6496C101.173 43.9837 99.9592 43.0446 99.3262 42.4846L99.0914 42.2705L99.0916 42.2695C98.6942 41.8873 98.5751 41.3503 98.6843 40.7684C98.7812 40.2521 99.0529 39.7461 99.4059 39.3841L99.5625 39.238L99.5637 39.2372L99.7251 39.1133C100.57 38.5344 101.948 38.5567 103.071 39.2058C103.292 39.3338 103.623 39.6633 103.989 40.1729C104.344 40.6677 104.698 41.2845 104.98 41.9298C105.262 42.5778 105.462 43.2337 105.526 43.8089Z" stroke="black"/>
<path d="M115.181 41.3626L115.18 41.3623C114.998 41.7472 114.602 41.9603 113.905 42.0683C113.564 42.121 113.186 42.143 112.778 42.1599C112.579 42.1681 112.371 42.1751 112.162 42.1843L111.535 42.2224C111.106 42.2576 110.699 42.3143 110.326 42.3697C109.947 42.426 109.615 42.479 109.308 42.5136C108.744 42.5774 108.411 42.5552 108.208 42.461L108.128 42.4167C107.166 41.7606 107.006 40.6473 107.462 39.5517L107.562 39.3326C107.892 38.6622 108.203 38.0487 108.58 37.669C108.759 37.4885 108.927 37.3894 109.09 37.3518C109.207 37.3248 109.351 37.3226 109.532 37.3776L109.727 37.4536C110.109 37.6308 110.758 37.8568 111.426 38.1103C112.115 38.3722 112.868 38.6783 113.535 39.0353C114.211 39.3975 114.744 39.7854 115.043 40.1895C115.187 40.3853 115.267 40.5713 115.292 40.7505C115.315 40.9258 115.292 41.1265 115.181 41.3626Z" stroke="black"/>
<path d="M118.97 34.353C118.887 34.699 118.897 34.9979 119.961 35.2538C121.026 35.5099 122.743 35.6263 122.826 35.2802C122.909 34.9329 121.328 34.2568 120.263 34.0007C119.198 33.7448 119.053 34.0069 118.97 34.353Z" fill="black"/>
<path d="M111.126 26.1667C111.043 26.5109 111.053 26.8116 112.117 27.0676C113.182 27.3237 114.899 27.44 114.982 27.0939C115.066 26.7448 113.484 26.0693 112.419 25.8132C111.354 25.5571 111.21 25.8175 111.126 26.1667Z" fill="black"/>
<path d="M116.841 41.4271C116.758 41.7731 116.767 42.0737 117.833 42.3299C118.898 42.586 120.614 42.7016 120.697 42.3543C120.78 42.0082 119.199 41.3316 118.134 41.0756C117.069 40.8206 116.924 41.0829 116.841 41.4271Z" fill="black"/>
<path d="M110.387 46.9197C110.47 46.5743 108.889 45.8971 107.823 45.6408C106.76 45.385 106.615 45.6453 106.531 45.9926C106.448 46.3387 106.457 46.6379 107.522 46.894C108.587 47.1502 110.303 47.2658 110.387 46.9197Z" fill="black"/>
<path d="M176.682 40.7143C176.58 40.8777 176.417 41.0283 176.152 41.1467L176.153 41.1474C175.884 41.2659 175.563 41.2011 175.068 40.8999C174.829 40.7541 174.585 40.5752 174.318 40.3809C174.123 40.2395 173.915 40.0898 173.702 39.9531L173.487 39.8207L173.485 39.82C172.59 39.3039 171.769 38.7795 171.155 38.2412C170.607 37.7611 170.282 37.3192 170.168 36.9146L170.132 36.7438C170.031 36.011 170.147 35.5837 170.363 35.2656C170.54 35.0061 170.808 34.7788 171.196 34.5282L171.624 34.2682C172.278 33.8878 172.786 33.6074 173.211 33.5525C173.401 33.528 173.549 33.554 173.679 33.6263C173.815 33.7015 173.979 33.8532 174.149 34.1627C174.356 34.5421 174.762 35.1654 175.164 35.8308C175.58 36.5176 176.022 37.2927 176.351 38.0522C176.686 38.8231 176.881 39.5223 176.859 40.0702C176.848 40.336 176.787 40.5475 176.682 40.7143Z" stroke="black"/>
<path d="M173.943 29.8514C173.76 30.1014 173.378 30.2949 172.751 30.3792C172.138 30.4615 171.386 30.4264 170.602 30.3156C169.225 30.1212 167.842 29.7096 167.098 29.4073L166.821 29.2859C166.557 29.1583 166.408 29.007 166.321 28.8582C166.234 28.7074 166.191 28.5239 166.198 28.3016C166.211 27.8971 166.387 27.4147 166.663 26.9335L166.786 26.7277C167.072 26.2735 167.625 25.8778 168.283 25.6747C168.857 25.4975 169.456 25.4831 169.958 25.6576L170.166 25.7438L170.168 25.7445L170.436 25.8811C171.118 26.2471 172.175 26.9333 172.987 27.7049C173.453 28.1482 173.802 28.5866 173.971 28.9776C174.112 29.3035 174.113 29.551 173.998 29.7625L173.943 29.8514Z" stroke="black"/>
<path d="M161.628 42.6246C161.414 43.093 161.164 43.4013 160.901 43.5611L160.788 43.621L160.787 43.6203C160.517 43.7391 160.2 43.6906 159.779 43.3492C159.353 43.0046 158.92 42.4304 158.512 41.7412C157.801 40.5406 157.242 39.1121 156.986 38.3065L156.894 38.0023L156.895 38.0016C156.75 37.4696 156.923 36.9476 157.315 36.5041C157.664 36.1107 158.156 35.8158 158.645 35.6862L158.855 35.6412L158.856 35.6412L159.058 35.6176C160.08 35.5541 161.252 36.2807 161.882 37.4136C162.006 37.6369 162.122 38.0898 162.174 38.715C162.225 39.3219 162.213 40.033 162.123 40.7313C162.033 41.4325 161.868 42.0981 161.628 42.6246Z" stroke="black"/>
<path d="M171.17 45.4789L171.169 45.4782C170.816 45.7154 170.367 45.6952 169.713 45.43C169.393 45.3004 169.057 45.1251 168.699 44.9304C168.524 44.8354 168.341 44.7346 168.157 44.6351L167.599 44.3461C167.213 44.1563 166.835 43.9962 166.486 43.8524C166.132 43.7062 165.82 43.5811 165.539 43.4536C165.022 43.2188 164.747 43.0289 164.622 42.8439L164.576 42.7649C164.087 41.7082 164.52 40.6703 165.474 39.9641L165.672 39.8274C166.3 39.4211 166.881 39.0542 167.4 38.9217C167.646 38.8588 167.841 38.8599 168 38.9112C168.115 38.9481 168.239 39.0199 168.366 39.1601L168.494 39.3252C168.732 39.6735 169.173 40.2005 169.616 40.7607C170.073 41.3394 170.563 41.9885 170.951 42.6367C171.346 43.2945 171.605 43.9013 171.654 44.4013C171.677 44.6436 171.65 44.8442 171.579 45.0105C171.51 45.1731 171.386 45.3332 171.17 45.4789Z" stroke="black"/>
<path d="M178.019 41.4066C177.77 41.6609 177.625 41.9227 178.408 42.6885C179.19 43.4547 180.604 44.4353 180.853 44.1809C181.103 43.9257 180.092 42.5338 179.309 41.7675C178.527 41.0018 178.268 41.1523 178.019 41.4066Z" fill="black"/>
<path d="M175.487 30.3553C175.239 30.6082 175.093 30.8714 175.875 31.6372C176.658 32.4034 178.072 33.3839 178.321 33.1296C178.572 32.873 177.561 31.4815 176.778 30.7153C175.995 29.9491 175.738 30.0987 175.487 30.3553Z" fill="black"/>
<path d="M172.562 46.3861C172.313 46.6404 172.167 46.9032 172.95 47.6699C173.732 48.4361 175.146 49.4157 175.396 49.1604C175.645 48.9061 174.635 47.5142 173.852 46.748C173.068 45.9822 172.81 46.1332 172.562 46.3861Z" fill="black"/>
<path d="M164.203 47.7889C164.452 47.535 163.442 46.1426 162.659 45.3759C161.878 44.6106 161.62 44.7597 161.37 45.015C161.121 45.2693 160.975 45.5307 161.758 46.2969C162.541 47.0636 163.954 48.0432 164.203 47.7889Z" fill="black"/>
<path d="M197.319 82.0813C197.196 82.2292 197.014 82.3563 196.735 82.4374L196.736 82.4381C196.454 82.5189 196.144 82.4109 195.695 82.045C195.478 81.8679 195.261 81.6575 195.022 81.4285C194.849 81.2619 194.663 81.0852 194.471 80.9207L194.276 80.7603L194.274 80.7593C193.457 80.1259 192.716 79.4945 192.181 78.8774C191.704 78.3272 191.442 77.8451 191.385 77.4288L191.372 77.2545C191.372 76.5148 191.545 76.1073 191.802 75.8216C192.013 75.5887 192.31 75.4001 192.728 75.2047L193.187 75.0055C193.887 74.7179 194.429 74.5094 194.858 74.5131C195.049 74.5147 195.192 74.5606 195.311 74.6499C195.435 74.743 195.577 74.9155 195.703 75.2454C195.857 75.6496 196.174 76.3223 196.482 77.0364C196.8 77.7735 197.132 78.6016 197.355 79.399C197.581 80.2083 197.679 80.9275 197.582 81.4673C197.536 81.7292 197.446 81.9303 197.319 82.0813Z" stroke="black"/>
<path d="M196.087 70.9461C195.872 71.1688 195.467 71.3084 194.834 71.3064C194.216 71.3043 193.476 71.167 192.714 70.9503C191.376 70.5699 190.062 69.9735 189.367 69.5727L189.109 69.4146C188.864 69.2521 188.737 69.0819 188.672 68.9227C188.606 68.7614 188.588 68.5737 188.626 68.3544C188.694 67.9555 188.934 67.5017 189.273 67.0625L189.423 66.8755C189.768 66.4645 190.37 66.148 191.05 66.0365C191.643 65.9393 192.237 66.0066 192.711 66.248L192.905 66.3617L192.907 66.3627L193.154 66.5346C193.78 66.9902 194.734 67.8141 195.433 68.6892C195.834 69.192 196.12 69.6739 196.234 70.0843C196.329 70.4264 196.296 70.6717 196.154 70.8655L196.087 70.9461Z" stroke="black"/>
<path d="M182.145 81.9208C181.87 82.3557 181.58 82.6271 181.297 82.7494L181.177 82.7933L181.176 82.7925C180.893 82.8734 180.585 82.7821 180.214 82.3865C179.84 81.9871 179.489 81.3591 179.179 80.6206C178.639 79.3345 178.279 77.8429 178.135 77.01L178.086 76.6961L178.087 76.6955C178.016 76.1487 178.259 75.6552 178.708 75.2694C179.106 74.9271 179.635 74.7022 180.137 74.6404L180.35 74.6244L180.352 74.6246L180.555 74.6288C181.576 74.7052 182.638 75.5849 183.108 76.7932C183.2 77.0313 183.253 77.4957 183.22 78.1223C183.187 78.7305 183.078 79.4332 182.894 80.1128C182.709 80.7951 182.455 81.432 182.145 81.9208Z" stroke="black"/>
<path d="M191.208 86.0495L191.208 86.0488C190.825 86.2356 190.383 86.1544 189.772 85.8025C189.472 85.6304 189.164 85.411 188.835 85.1692C188.674 85.0512 188.508 84.9265 188.338 84.8027L187.826 84.4404C187.469 84.1997 187.116 83.9895 186.79 83.7995C186.459 83.6064 186.167 83.4399 185.906 83.2752C185.426 82.9721 185.18 82.7466 185.08 82.5461L185.046 82.4617C184.706 81.3481 185.277 80.379 186.318 79.8096L186.533 79.7011C187.21 79.3842 187.836 79.1001 188.368 79.0395C188.62 79.0107 188.813 79.0385 188.964 79.111C189.072 79.1631 189.186 79.2512 189.293 79.4074L189.397 79.5884C189.585 79.9659 189.95 80.5482 190.312 81.1636C190.687 81.7992 191.083 82.509 191.379 83.2041C191.68 83.9095 191.854 84.546 191.834 85.048C191.825 85.2913 191.771 85.4863 191.678 85.6414C191.587 85.793 191.443 85.9348 191.208 86.0495Z" stroke="black"/>
<path d="M198.549 82.9495C198.268 83.1675 198.089 83.4071 198.759 84.2724C199.43 85.1382 200.697 86.3023 200.978 86.0843C201.26 85.8656 200.449 84.3488 199.778 83.483C199.108 82.6177 198.831 82.7315 198.549 82.9495Z" fill="black"/>
<path d="M197.548 71.6563C197.268 71.8731 197.088 72.1139 197.758 72.9792C198.429 73.845 199.695 75.0092 199.977 74.7912C200.26 74.5712 199.449 73.0549 198.778 72.1891C198.107 71.3233 197.832 71.4364 197.548 71.6563Z" fill="black"/>
<path d="M192.464 87.1385C192.183 87.3565 192.002 87.5968 192.673 88.4631C193.344 89.3289 194.61 90.4922 194.893 90.2734C195.174 90.0554 194.364 88.5388 193.693 87.673C193.021 86.8075 192.744 86.9217 192.464 87.1385Z" fill="black"/>
<path d="M183.992 87.3877C184.273 87.1701 183.463 85.653 182.791 84.7867C182.121 83.9219 181.846 84.0345 181.563 84.2533C181.282 84.4713 181.102 84.7103 181.773 85.5761C182.444 86.4424 183.71 87.6056 183.992 87.3877Z" fill="black"/>
<path d="M224.319 61.0813C224.196 61.2292 224.014 61.3563 223.735 61.4374L223.736 61.4381C223.454 61.5189 223.144 61.4109 222.695 61.045C222.478 60.8679 222.261 60.6575 222.022 60.4285C221.849 60.2619 221.663 60.0852 221.471 59.9207L221.276 59.7603L221.274 59.7593C220.457 59.1259 219.716 58.4945 219.181 57.8774C218.704 57.3272 218.442 56.8451 218.385 56.4288L218.372 56.2545C218.372 55.5148 218.545 55.1073 218.802 54.8216C219.013 54.5887 219.31 54.4001 219.728 54.2047L220.187 54.0055C220.887 53.7179 221.429 53.5094 221.858 53.5131C222.049 53.5147 222.192 53.5606 222.311 53.6499C222.435 53.743 222.577 53.9155 222.703 54.2454C222.857 54.6496 223.174 55.3223 223.482 56.0364C223.8 56.7735 224.132 57.6016 224.355 58.399C224.581 59.2083 224.679 59.9275 224.582 60.4673C224.536 60.7292 224.446 60.9303 224.319 61.0813Z" stroke="black"/>
<path d="M223.087 49.9461C222.872 50.1688 222.467 50.3084 221.834 50.3064C221.216 50.3043 220.476 50.167 219.714 49.9503C218.376 49.5699 217.062 48.9735 216.367 48.5727L216.109 48.4146C215.864 48.2521 215.737 48.0819 215.672 47.9227C215.606 47.7614 215.588 47.5737 215.626 47.3544C215.694 46.9555 215.934 46.5017 216.273 46.0625L216.423 45.8755C216.768 45.4645 217.37 45.148 218.05 45.0365C218.643 44.9393 219.237 45.0066 219.711 45.248L219.905 45.3617L219.907 45.3627L220.154 45.5346C220.78 45.9902 221.734 46.8141 222.433 47.6892C222.834 48.192 223.12 48.6739 223.234 49.0843C223.329 49.4264 223.296 49.6717 223.154 49.8655L223.087 49.9461Z" stroke="black"/>
<path d="M209.145 60.9208C208.87 61.3557 208.58 61.6271 208.297 61.7494L208.177 61.7933L208.176 61.7925C207.893 61.8734 207.585 61.7821 207.214 61.3865C206.84 60.9871 206.489 60.3591 206.179 59.6206C205.639 58.3345 205.279 56.8429 205.135 56.01L205.086 55.6961L205.087 55.6955C205.016 55.1487 205.259 54.6552 205.708 54.2694C206.106 53.9271 206.635 53.7022 207.137 53.6404L207.35 53.6244L207.352 53.6246L207.555 53.6288C208.576 53.7052 209.638 54.5849 210.108 55.7932C210.2 56.0313 210.253 56.4957 210.22 57.1223C210.187 57.7305 210.078 58.4332 209.894 59.1128C209.709 59.7951 209.455 60.432 209.145 60.9208Z" stroke="black"/>
<path d="M218.208 65.0495L218.208 65.0488C217.825 65.2356 217.383 65.1544 216.772 64.8025C216.472 64.6304 216.164 64.411 215.835 64.1692C215.674 64.0512 215.508 63.9265 215.338 63.8027L214.826 63.4404C214.469 63.1997 214.116 62.9895 213.79 62.7995C213.459 62.6064 213.167 62.4399 212.906 62.2752C212.426 61.9721 212.18 61.7466 212.08 61.5461L212.046 61.4617C211.706 60.3481 212.277 59.379 213.318 58.8096L213.533 58.7011C214.21 58.3842 214.836 58.1001 215.368 58.0395C215.62 58.0107 215.813 58.0385 215.964 58.111C216.072 58.1631 216.186 58.2512 216.293 58.4074L216.397 58.5884C216.585 58.9659 216.95 59.5482 217.312 60.1636C217.687 60.7992 218.083 61.509 218.379 62.2041C218.68 62.9095 218.854 63.546 218.834 64.048C218.825 64.2913 218.771 64.4863 218.678 64.6414C218.587 64.793 218.443 64.9348 218.208 65.0495Z" stroke="black"/>
<path d="M225.549 61.9495C225.268 62.1675 225.089 62.4071 225.759 63.2724C226.43 64.1382 227.697 65.3023 227.978 65.0843C228.26 64.8656 227.449 63.3488 226.778 62.483C226.108 61.6177 225.831 61.7315 225.549 61.9495Z" fill="black"/>
<path d="M224.548 50.6563C224.268 50.8731 224.088 51.1139 224.758 51.9792C225.429 52.845 226.695 54.0092 226.977 53.7912C227.26 53.5712 226.449 52.0549 225.778 51.1891C225.107 50.3233 224.832 50.4364 224.548 50.6563Z" fill="black"/>
<path d="M219.464 66.1385C219.183 66.3565 219.002 66.5968 219.673 67.4631C220.344 68.3289 221.61 69.4922 221.893 69.2734C222.174 69.0554 221.364 67.5388 220.693 66.673C220.021 65.8075 219.744 65.9217 219.464 66.1385Z" fill="black"/>
<path d="M210.992 66.3877C211.273 66.1701 210.463 64.653 209.791 63.7867C209.121 62.9219 208.846 63.0345 208.563 63.2533C208.282 63.4713 208.102 63.7103 208.773 64.5761C209.444 65.4424 210.71 66.6056 210.992 66.3877Z" fill="black"/>
<path d="M303.319 145.081C303.195 145.229 303.014 145.356 302.735 145.437L302.735 145.438C302.453 145.519 302.144 145.411 301.695 145.045C301.477 144.868 301.26 144.657 301.022 144.429C300.848 144.262 300.663 144.085 300.47 143.921L300.276 143.76L300.274 143.759C299.457 143.126 298.715 142.494 298.181 141.877C297.704 141.327 297.442 140.845 297.384 140.429L297.372 140.255C297.372 139.515 297.544 139.107 297.802 138.822C298.012 138.589 298.309 138.4 298.727 138.205L299.187 138.006C299.887 137.718 300.428 137.509 300.857 137.513C301.049 137.515 301.191 137.561 301.311 137.65C301.435 137.743 301.576 137.916 301.703 138.245C301.856 138.65 302.173 139.322 302.481 140.036C302.799 140.773 303.131 141.602 303.354 142.399C303.581 143.208 303.678 143.928 303.582 144.467C303.535 144.729 303.445 144.93 303.319 145.081Z" stroke="black"/>
<path d="M302.087 133.947C301.872 134.169 301.467 134.309 300.834 134.307C300.216 134.305 299.476 134.167 298.714 133.951C297.376 133.57 296.062 132.974 295.367 132.573L295.109 132.415C294.864 132.253 294.737 132.082 294.672 131.923C294.606 131.762 294.588 131.574 294.626 131.355C294.694 130.956 294.934 130.502 295.273 130.063L295.423 129.876C295.768 129.465 296.37 129.148 297.05 129.037C297.643 128.94 298.237 129.007 298.711 129.248L298.905 129.362L298.907 129.363L299.154 129.535C299.78 129.991 300.734 130.815 301.433 131.69C301.834 132.193 302.12 132.674 302.234 133.085C302.329 133.427 302.296 133.672 302.154 133.866L302.087 133.947Z" stroke="black"/>
<path d="M288.145 144.921C287.87 145.356 287.58 145.627 287.297 145.749L287.177 145.793L287.176 145.793C286.893 145.873 286.585 145.782 286.214 145.386C285.84 144.987 285.489 144.359 285.179 143.621C284.639 142.334 284.279 140.843 284.135 140.01L284.086 139.696L284.087 139.695C284.016 139.149 284.259 138.655 284.708 138.269C285.106 137.927 285.635 137.702 286.137 137.64L286.35 137.624L286.352 137.625L286.555 137.629C287.576 137.705 288.638 138.585 289.108 139.793C289.2 140.031 289.253 140.496 289.22 141.122C289.187 141.73 289.078 142.433 288.894 143.113C288.709 143.795 288.455 144.432 288.145 144.921Z" stroke="black"/>
<path d="M297.208 149.05L297.208 149.049C296.825 149.236 296.383 149.154 295.772 148.802C295.472 148.63 295.164 148.411 294.835 148.169C294.674 148.051 294.508 147.927 294.338 147.803L293.826 147.44C293.469 147.2 293.116 146.99 292.79 146.8C292.459 146.606 292.167 146.44 291.906 146.275C291.426 145.972 291.18 145.747 291.08 145.546L291.046 145.462C290.706 144.348 291.277 143.379 292.318 142.81L292.533 142.701C293.21 142.384 293.836 142.1 294.368 142.039C294.62 142.011 294.813 142.039 294.964 142.111C295.072 142.163 295.186 142.251 295.293 142.407L295.397 142.588C295.585 142.966 295.95 143.548 296.312 144.164C296.687 144.799 297.083 145.509 297.379 146.204C297.68 146.91 297.854 147.546 297.834 148.048C297.825 148.291 297.771 148.486 297.678 148.641C297.587 148.793 297.443 148.935 297.208 149.05Z" stroke="black"/>
<path d="M304.549 145.95C304.267 146.168 304.089 146.408 304.759 147.273C305.43 148.139 306.696 149.303 306.978 149.085C307.26 148.866 306.449 147.349 305.778 146.484C305.107 145.618 304.83 145.732 304.549 145.95Z" fill="black"/>
<path d="M303.547 134.656C303.267 134.873 303.087 135.114 303.757 135.979C304.428 136.845 305.695 138.009 305.976 137.791C306.26 137.571 305.448 136.055 304.777 135.189C304.107 134.323 303.831 134.436 303.547 134.656Z" fill="black"/>
<path d="M298.464 150.139C298.183 150.357 298.002 150.597 298.673 151.463C299.344 152.329 300.61 153.492 300.893 153.273C301.174 153.055 300.364 151.539 299.693 150.673C299.021 149.807 298.744 149.922 298.464 150.139Z" fill="black"/>
<path d="M289.992 150.388C290.273 150.17 289.463 148.653 288.791 147.787C288.121 146.922 287.846 147.035 287.563 147.253C287.282 147.471 287.102 147.71 287.773 148.576C288.444 149.442 289.71 150.606 289.992 150.388Z" fill="black"/>
<path d="M342.319 149.082C342.196 149.23 342.014 149.357 341.735 149.438L341.736 149.439C341.454 149.519 341.144 149.411 340.695 149.045C340.478 148.868 340.261 148.658 340.022 148.429C339.849 148.262 339.663 148.086 339.471 147.921L339.276 147.761L339.274 147.76C338.457 147.126 337.716 146.495 337.181 145.878C336.704 145.328 336.442 144.846 336.385 144.429L336.372 144.255C336.372 143.515 336.545 143.108 336.802 142.822C337.013 142.589 337.31 142.401 337.728 142.205L338.187 142.006C338.887 141.718 339.429 141.51 339.858 141.514C340.049 141.515 340.192 141.561 340.311 141.65C340.435 141.743 340.577 141.916 340.703 142.246C340.857 142.65 341.174 143.323 341.482 144.037C341.8 144.774 342.132 145.602 342.355 146.399C342.581 147.209 342.679 147.928 342.582 148.468C342.536 148.73 342.446 148.931 342.319 149.082Z" stroke="black"/>
<path d="M341.087 137.947C340.872 138.169 340.467 138.309 339.834 138.307C339.216 138.305 338.476 138.167 337.714 137.951C336.376 137.57 335.062 136.974 334.367 136.573L334.109 136.415C333.864 136.253 333.737 136.082 333.672 135.923C333.606 135.762 333.588 135.574 333.626 135.355C333.694 134.956 333.934 134.502 334.273 134.063L334.423 133.876C334.768 133.465 335.37 133.148 336.05 133.037C336.643 132.94 337.237 133.007 337.711 133.248L337.905 133.362L337.907 133.363L338.154 133.535C338.78 133.991 339.734 134.815 340.433 135.69C340.834 136.193 341.12 136.674 341.234 137.085C341.329 137.427 341.296 137.672 341.154 137.866L341.087 137.947Z" stroke="black"/>
<path d="M327.145 148.921C326.87 149.356 326.58 149.627 326.297 149.749L326.177 149.793L326.176 149.793C325.893 149.873 325.585 149.782 325.214 149.386C324.84 148.987 324.489 148.359 324.179 147.621C323.639 146.334 323.279 144.843 323.135 144.01L323.086 143.696L323.087 143.695C323.016 143.149 323.259 142.655 323.708 142.269C324.106 141.927 324.635 141.702 325.137 141.64L325.35 141.624L325.352 141.625L325.555 141.629C326.576 141.705 327.638 142.585 328.108 143.793C328.2 144.031 328.253 144.496 328.22 145.122C328.187 145.73 328.078 146.433 327.894 147.113C327.709 147.795 327.455 148.432 327.145 148.921Z" stroke="black"/>
<path d="M336.208 153.05L336.208 153.049C335.825 153.236 335.383 153.154 334.772 152.802C334.472 152.63 334.164 152.411 333.835 152.169C333.674 152.051 333.508 151.927 333.338 151.803L332.826 151.44C332.469 151.2 332.116 150.99 331.79 150.8C331.459 150.606 331.167 150.44 330.906 150.275C330.426 149.972 330.18 149.747 330.08 149.546L330.046 149.462C329.706 148.348 330.277 147.379 331.318 146.81L331.533 146.701C332.21 146.384 332.836 146.1 333.368 146.039C333.62 146.011 333.813 146.039 333.964 146.111C334.072 146.163 334.186 146.251 334.293 146.407L334.397 146.588C334.585 146.966 334.95 147.548 335.312 148.164C335.687 148.799 336.083 149.509 336.379 150.204C336.68 150.91 336.854 151.546 336.834 152.048C336.825 152.291 336.771 152.486 336.678 152.641C336.587 152.793 336.443 152.935 336.208 153.05Z" stroke="black"/>
<path d="M343.549 149.95C343.268 150.168 343.089 150.408 343.759 151.273C344.43 152.139 345.697 153.303 345.978 153.085C346.26 152.866 345.449 151.349 344.778 150.484C344.108 149.618 343.831 149.732 343.549 149.95Z" fill="black"/>
<path d="M342.548 138.656C342.268 138.873 342.088 139.114 342.758 139.979C343.429 140.845 344.695 142.009 344.977 141.791C345.26 141.571 344.449 140.055 343.778 139.189C343.107 138.323 342.832 138.436 342.548 138.656Z" fill="black"/>
<path d="M337.464 154.139C337.183 154.357 337.002 154.597 337.673 155.463C338.344 156.329 339.61 157.492 339.893 157.273C340.174 157.055 339.364 155.539 338.693 154.673C338.021 153.807 337.744 153.922 337.464 154.139Z" fill="black"/>
<path d="M328.992 154.388C329.273 154.17 328.463 152.653 327.791 151.787C327.121 150.922 326.846 151.035 326.563 151.253C326.282 151.471 326.102 151.71 326.773 152.576C327.444 153.442 328.71 154.606 328.992 154.388Z" fill="black"/>
<path d="M368.319 210.081C368.196 210.229 368.014 210.356 367.735 210.437L367.736 210.438C367.454 210.519 367.144 210.411 366.695 210.045C366.478 209.868 366.261 209.657 366.022 209.429C365.849 209.262 365.663 209.085 365.471 208.921L365.276 208.76L365.274 208.759C364.457 208.126 363.716 207.494 363.181 206.877C362.704 206.327 362.442 205.845 362.385 205.429L362.372 205.255C362.372 204.515 362.545 204.107 362.802 203.822C363.013 203.589 363.31 203.4 363.728 203.205L364.187 203.006C364.887 202.718 365.429 202.509 365.858 202.513C366.049 202.515 366.192 202.561 366.311 202.65C366.435 202.743 366.577 202.916 366.703 203.245C366.857 203.65 367.174 204.322 367.482 205.036C367.8 205.773 368.132 206.602 368.355 207.399C368.581 208.208 368.679 208.928 368.582 209.467C368.536 209.729 368.446 209.93 368.319 210.081Z" stroke="black"/>
<path d="M367.087 198.946C366.872 199.169 366.467 199.308 365.834 199.306C365.216 199.304 364.476 199.167 363.714 198.95C362.376 198.57 361.062 197.973 360.367 197.573L360.109 197.415C359.864 197.252 359.737 197.082 359.672 196.923C359.606 196.761 359.588 196.574 359.626 196.354C359.694 195.955 359.934 195.502 360.273 195.062L360.423 194.876C360.768 194.465 361.37 194.148 362.05 194.036C362.643 193.939 363.237 194.007 363.711 194.248L363.905 194.362L363.907 194.363L364.154 194.535C364.78 194.99 365.734 195.814 366.433 196.689C366.834 197.192 367.12 197.674 367.234 198.084C367.329 198.426 367.296 198.672 367.154 198.866L367.087 198.946Z" stroke="black"/>
<path d="M353.145 209.921C352.87 210.356 352.58 210.627 352.297 210.749L352.177 210.793L352.176 210.793C351.893 210.873 351.585 210.782 351.214 210.386C350.84 209.987 350.489 209.359 350.179 208.621C349.639 207.334 349.279 205.843 349.135 205.01L349.086 204.696L349.087 204.695C349.016 204.149 349.259 203.655 349.708 203.269C350.106 202.927 350.635 202.702 351.137 202.64L351.35 202.624L351.352 202.625L351.555 202.629C352.576 202.705 353.638 203.585 354.108 204.793C354.2 205.031 354.253 205.496 354.22 206.122C354.187 206.73 354.078 207.433 353.894 208.113C353.709 208.795 353.455 209.432 353.145 209.921Z" stroke="black"/>
<path d="M362.208 214.05L362.208 214.049C361.825 214.236 361.383 214.154 360.772 213.802C360.472 213.63 360.164 213.411 359.835 213.169C359.674 213.051 359.508 212.927 359.338 212.803L358.826 212.44C358.469 212.2 358.116 211.99 357.79 211.8C357.459 211.606 357.167 211.44 356.906 211.275C356.426 210.972 356.18 210.747 356.08 210.546L356.046 210.462C355.706 209.348 356.277 208.379 357.318 207.81L357.533 207.701C358.21 207.384 358.836 207.1 359.368 207.039C359.62 207.011 359.813 207.039 359.964 207.111C360.072 207.163 360.186 207.251 360.293 207.407L360.397 207.588C360.585 207.966 360.95 208.548 361.312 209.164C361.687 209.799 362.083 210.509 362.379 211.204C362.68 211.91 362.854 212.546 362.834 213.048C362.825 213.291 362.771 213.486 362.678 213.641C362.587 213.793 362.443 213.935 362.208 214.05Z" stroke="black"/>
<path d="M369.549 210.949C369.268 211.167 369.089 211.407 369.759 212.272C370.43 213.138 371.697 214.302 371.978 214.084C372.26 213.866 371.449 212.349 370.778 211.483C370.108 210.618 369.831 210.731 369.549 210.949Z" fill="black"/>
<path d="M368.548 199.656C368.268 199.873 368.088 200.114 368.758 200.979C369.429 201.845 370.695 203.009 370.977 202.791C371.26 202.571 370.449 201.055 369.778 200.189C369.107 199.323 368.832 199.436 368.548 199.656Z" fill="black"/>
<path d="M363.464 215.139C363.183 215.357 363.002 215.597 363.673 216.463C364.344 217.329 365.61 218.492 365.893 218.273C366.174 218.055 365.364 216.539 364.693 215.673C364.021 214.807 363.744 214.922 363.464 215.139Z" fill="black"/>
<path d="M354.992 215.388C355.273 215.17 354.463 213.653 353.791 212.787C353.121 211.922 352.846 212.035 352.563 212.253C352.282 212.471 352.102 212.71 352.773 213.576C353.444 214.442 354.71 215.606 354.992 215.388Z" fill="black"/>
<path d="M425.319 218.081C425.196 218.229 425.014 218.356 424.735 218.437L424.736 218.438C424.454 218.519 424.144 218.411 423.695 218.045C423.478 217.868 423.261 217.657 423.022 217.429C422.849 217.262 422.663 217.085 422.471 216.921L422.276 216.76L422.274 216.759C421.457 216.126 420.716 215.494 420.181 214.877C419.704 214.327 419.442 213.845 419.385 213.429L419.372 213.255C419.372 212.515 419.545 212.107 419.802 211.822C420.013 211.589 420.31 211.4 420.728 211.205L421.187 211.006C421.887 210.718 422.429 210.509 422.858 210.513C423.049 210.515 423.192 210.561 423.311 210.65C423.435 210.743 423.577 210.916 423.703 211.245C423.857 211.65 424.174 212.322 424.482 213.036C424.8 213.773 425.132 214.602 425.355 215.399C425.581 216.208 425.679 216.928 425.582 217.467C425.536 217.729 425.446 217.93 425.319 218.081Z" stroke="black"/>
<path d="M424.087 206.946C423.872 207.169 423.467 207.308 422.834 207.306C422.216 207.304 421.476 207.167 420.714 206.95C419.376 206.57 418.062 205.973 417.367 205.573L417.109 205.415C416.864 205.252 416.737 205.082 416.672 204.923C416.606 204.761 416.588 204.574 416.626 204.354C416.694 203.955 416.934 203.502 417.273 203.062L417.423 202.876C417.768 202.465 418.37 202.148 419.05 202.036C419.643 201.939 420.237 202.007 420.711 202.248L420.905 202.362L420.907 202.363L421.154 202.535C421.78 202.99 422.734 203.814 423.433 204.689C423.834 205.192 424.12 205.674 424.234 206.084C424.329 206.426 424.296 206.672 424.154 206.866L424.087 206.946Z" stroke="black"/>
<path d="M410.145 217.921C409.87 218.356 409.58 218.627 409.297 218.749L409.177 218.793L409.176 218.793C408.893 218.873 408.585 218.782 408.214 218.386C407.84 217.987 407.489 217.359 407.179 216.621C406.639 215.334 406.279 213.843 406.135 213.01L406.086 212.696L406.087 212.695C406.016 212.149 406.259 211.655 406.708 211.269C407.106 210.927 407.635 210.702 408.137 210.64L408.35 210.624L408.352 210.625L408.555 210.629C409.576 210.705 410.638 211.585 411.108 212.793C411.2 213.031 411.253 213.496 411.22 214.122C411.187 214.73 411.078 215.433 410.894 216.113C410.709 216.795 410.455 217.432 410.145 217.921Z" stroke="black"/>
<path d="M419.208 222.05L419.208 222.049C418.825 222.236 418.383 222.154 417.772 221.802C417.472 221.63 417.164 221.411 416.835 221.169C416.674 221.051 416.508 220.927 416.338 220.803L415.826 220.44C415.469 220.2 415.116 219.99 414.79 219.8C414.459 219.606 414.167 219.44 413.906 219.275C413.426 218.972 413.18 218.747 413.08 218.546L413.046 218.462C412.706 217.348 413.277 216.379 414.318 215.81L414.533 215.701C415.21 215.384 415.836 215.1 416.368 215.039C416.62 215.011 416.813 215.039 416.964 215.111C417.072 215.163 417.186 215.251 417.293 215.407L417.397 215.588C417.585 215.966 417.95 216.548 418.312 217.164C418.687 217.799 419.083 218.509 419.379 219.204C419.68 219.91 419.854 220.546 419.834 221.048C419.825 221.291 419.771 221.486 419.678 221.641C419.587 221.793 419.443 221.935 419.208 222.05Z" stroke="black"/>
<path d="M426.549 218.949C426.268 219.167 426.089 219.407 426.759 220.272C427.43 221.138 428.697 222.302 428.978 222.084C429.26 221.866 428.449 220.349 427.778 219.483C427.108 218.618 426.831 218.731 426.549 218.949Z" fill="black"/>
<path d="M425.548 207.656C425.268 207.873 425.088 208.114 425.758 208.979C426.429 209.845 427.695 211.009 427.977 210.791C428.26 210.571 427.449 209.055 426.778 208.189C426.107 207.323 425.832 207.436 425.548 207.656Z" fill="black"/>
<path d="M420.464 223.139C420.183 223.357 420.002 223.597 420.673 224.463C421.344 225.329 422.61 226.492 422.893 226.273C423.174 226.055 422.364 224.539 421.693 223.673C421.021 222.807 420.744 222.922 420.464 223.139Z" fill="black"/>
<path d="M411.992 223.388C412.273 223.17 411.463 221.653 410.791 220.787C410.121 219.922 409.846 220.035 409.563 220.253C409.282 220.471 409.102 220.71 409.773 221.576C410.444 222.442 411.71 223.606 411.992 223.388Z" fill="black"/>
<path d="M47.0804 31.5588C47.2604 31.6281 47.4392 31.7588 47.606 31.9964L47.6066 31.9956C47.7742 32.2366 47.7719 32.5644 47.5707 33.1076C47.4732 33.3706 47.3442 33.6438 47.2045 33.9435C47.1029 34.1616 46.9956 34.3944 46.9021 34.6295L46.8131 34.8656L46.8129 34.8678C46.4771 35.8453 46.1191 36.751 45.7078 37.4565C45.3411 38.0854 44.9694 38.4891 44.594 38.6779L44.4332 38.7462C43.7331 38.9852 43.2917 38.9533 42.9381 38.8017C42.6497 38.678 42.3753 38.4579 42.0554 38.1252L41.7184 37.7545C41.2201 37.1849 40.8479 36.7398 40.7128 36.3327C40.6526 36.1511 40.6499 36.0013 40.696 35.8596C40.7439 35.712 40.8615 35.5223 41.1329 35.2961C41.4658 35.0202 42.0001 34.5032 42.5764 33.9808C43.1712 33.4416 43.8478 32.8601 44.5304 32.3915C45.2232 31.9158 45.8724 31.5911 46.4144 31.5081C46.6773 31.4678 46.8967 31.488 47.0804 31.5588Z" stroke="black"/>
<path d="M36.9404 36.3219C37.2205 36.4532 37.4833 36.791 37.6859 37.3911C37.8836 37.9766 37.9927 38.7215 38.0337 39.5127C38.1058 40.9017 37.9656 42.3374 37.8108 43.1249L37.7447 43.4205C37.6698 43.7041 37.5498 43.8795 37.4202 43.9926C37.2889 44.1072 37.1169 44.1844 36.8973 44.2199C36.4978 44.2844 35.9906 44.2032 35.4656 44.0248L35.2401 43.9428C34.7396 43.7489 34.2457 43.2815 33.9206 42.6743C33.6372 42.1448 33.5088 41.5601 33.5843 41.0339L33.6292 40.8132L33.6294 40.811L33.7124 40.5219C33.9414 39.7822 34.4132 38.6138 35.0157 37.6697C35.3619 37.1273 35.7255 36.7008 36.0771 36.4605C36.3701 36.2601 36.6129 36.2118 36.8424 36.2842L36.9404 36.3219Z" stroke="black"/>
<path d="M51.8291 45.9712C52.3297 46.0915 52.68 46.2778 52.8871 46.506L52.9676 46.6058L52.967 46.6066C53.1351 46.8488 53.1481 47.1693 52.8934 47.6481C52.6363 48.1314 52.1555 48.6669 51.5568 49.1987C50.5139 50.1251 49.2184 50.9472 48.4765 51.3522L48.1954 51.5002L48.1945 51.4997C47.7001 51.7436 47.1545 51.6731 46.6443 51.3727C46.1917 51.106 45.8081 50.6785 45.5877 50.2236L45.5035 50.0266L45.5032 50.0252L45.4415 49.8313C45.184 48.8402 45.6736 47.5512 46.6654 46.7163C46.8609 46.552 47.2834 46.3522 47.8871 46.1812C48.4731 46.0152 49.1736 45.8919 49.8761 45.8465C50.5816 45.801 51.2664 45.8359 51.8291 45.9712Z" stroke="black"/>
<path d="M52.8094 36.0602L52.8089 36.061C53.1092 36.3625 53.1751 36.8071 53.0396 37.4997C52.9734 37.8384 52.8654 38.2015 52.7428 38.5906C52.6829 38.7807 52.6187 38.9786 52.5563 39.1788L52.3791 39.7813C52.2664 40.1965 52.1815 40.5985 52.1068 40.968C52.031 41.3436 51.9678 41.6742 51.8963 41.9742C51.7645 42.5267 51.6304 42.8322 51.4728 42.9911L51.4041 43.051C50.4601 43.7327 49.3585 43.5053 48.4833 42.7037L48.3112 42.5353C47.7927 41.9973 47.3215 41.4962 47.0925 41.0127C46.9837 40.7829 46.9476 40.591 46.9675 40.4251C46.9819 40.3058 47.0286 40.17 47.142 40.0184L47.2796 39.8612C47.5762 39.5617 48.0093 39.028 48.4747 38.4863C48.9553 37.9267 49.4992 37.3225 50.0612 36.8173C50.6316 36.3047 51.1778 35.9345 51.6593 35.7911C51.8926 35.7216 52.0947 35.7098 52.2715 35.7478C52.4444 35.785 52.6251 35.8755 52.8094 36.0602Z" stroke="black"/>
<path d="M47.5049 30.1142C47.802 30.3101 48.0866 30.402 48.689 29.488C49.2918 28.5736 49.9844 26.9989 49.6873 26.8031C49.389 26.6065 48.2156 27.8643 47.6129 28.7787C47.0105 29.6927 47.2077 29.9183 47.5049 30.1142Z" fill="black"/>
<path d="M37.1402 34.7096C37.4358 34.9045 37.722 34.9974 38.3244 34.0835C38.9271 33.169 39.6198 31.5944 39.3226 31.3985C39.0228 31.2009 37.8499 32.459 37.2471 33.3735C36.6444 34.288 36.8404 34.512 37.1402 34.7096Z" fill="black"/>
<path d="M53.4345 34.5206C53.7317 34.7165 54.0175 34.81 54.6206 33.8949C55.2234 32.9805 55.9152 31.406 55.6169 31.2095C55.3197 31.0136 54.1461 32.2705 53.5434 33.1849C52.9414 34.1007 53.1389 34.3258 53.4345 34.5206Z" fill="black"/>
<path d="M56.4065 42.4575C56.1098 42.262 54.9357 43.5185 54.3326 44.4335C53.7306 45.3469 53.9262 45.5715 54.2244 45.7681C54.5216 45.964 54.806 46.0573 55.4087 45.1428C56.0118 44.2278 56.7036 42.6534 56.4065 42.4575Z" fill="black"/>
<path d="M8.52137 87.9495C8.6881 87.8526 8.90201 87.795 9.1917 87.8137L9.1914 87.8128C9.48427 87.833 9.73847 88.0401 10.036 88.5371C10.1801 88.7777 10.3123 89.0494 10.4585 89.3459C10.565 89.5617 10.6793 89.7911 10.8041 90.0113L10.9325 90.2285L10.934 90.23C11.4859 91.1038 11.968 91.9501 12.2606 92.7125C12.5214 93.3922 12.6034 93.9347 12.5156 94.3457L12.4682 94.5139C12.2162 95.2093 11.9149 95.5336 11.5753 95.7144C11.2983 95.8618 10.9549 95.9379 10.4951 95.9791L9.9951 96.0098C9.239 96.0416 8.65886 96.0531 8.25684 95.9036C8.07761 95.8369 7.9591 95.7451 7.87742 95.6205C7.7924 95.4907 7.71811 95.2803 7.71159 94.927C7.70489 94.4947 7.63635 93.7544 7.58986 92.978C7.54188 92.1765 7.51207 91.285 7.57404 90.4593C7.63694 89.6212 7.79018 88.9117 8.06485 88.4371C8.1981 88.2069 8.35114 88.0485 8.52137 87.9495Z" stroke="black"/>
<path d="M5.88627 98.8386C6.16411 98.7024 6.59204 98.709 7.18679 98.9267C7.76711 99.1392 8.4162 99.5205 9.05888 99.9839C10.187 100.797 11.2187 101.806 11.7358 102.419L11.9249 102.656C12.0992 102.892 12.1608 103.095 12.1678 103.267C12.175 103.441 12.1275 103.624 12.0177 103.817C11.8178 104.169 11.4369 104.514 10.9691 104.811L10.764 104.936C10.2995 105.205 9.62574 105.297 8.94878 105.171C8.35839 105.06 7.82212 104.794 7.45911 104.406L7.31512 104.233L7.31359 104.231L7.14008 103.985C6.70672 103.344 6.0911 102.244 5.73217 101.183C5.52598 100.574 5.42114 100.023 5.45382 99.5985C5.48108 99.2445 5.59545 99.025 5.79555 98.8914L5.88627 98.8386Z" stroke="black"/>
<path d="M22.7328 93.271C23.1401 92.956 23.5047 92.7995 23.8123 92.7809L23.9404 92.7806L23.9407 92.7816C24.2348 92.8022 24.4928 92.9927 24.7068 93.4911C24.9226 93.9941 25.0391 94.7043 25.0789 95.5042C25.1483 96.8974 24.9781 98.4222 24.8295 99.2543L24.7688 99.5662L24.7679 99.5665C24.6485 100.105 24.2519 100.486 23.6982 100.696C23.2069 100.882 22.6334 100.913 22.1406 100.8L21.9343 100.742L21.9331 100.742L21.7433 100.669C20.8093 100.249 20.1107 99.0599 20.0807 97.7638C20.0751 97.5085 20.1838 97.054 20.4284 96.4762C20.6659 95.9153 21.0083 95.292 21.4128 94.7158C21.8191 94.1372 22.275 93.6251 22.7328 93.271Z" stroke="black"/>
<path d="M15.6184 86.3013L15.6187 86.3022C16.0418 86.2569 16.4297 86.4838 16.8849 87.0231C17.1075 87.2868 17.3231 87.5983 17.5497 87.9376C17.6604 88.1033 17.7746 88.2772 17.8916 88.4513L18.2504 88.9667C18.5036 89.3144 18.7638 89.6324 19.0052 89.9219C19.2506 90.2163 19.4689 90.4725 19.658 90.7162C20.0062 91.1648 20.1605 91.4606 20.1857 91.683L20.1894 91.7741C20.1299 92.9369 19.2629 93.6535 18.0898 93.8341L17.8508 93.8628C17.1067 93.9303 16.4209 93.9839 15.9005 93.8598C15.6532 93.8007 15.481 93.7088 15.3641 93.5893C15.2801 93.5034 15.2035 93.382 15.1563 93.1987L15.1198 92.9929C15.072 92.5741 14.9271 91.9022 14.796 91.2002C14.6606 90.4751 14.53 89.6728 14.4881 88.9182C14.4454 88.1524 14.4988 87.4948 14.6884 87.0296C14.7803 86.8041 14.8976 86.6391 15.038 86.5251C15.1753 86.4136 15.359 86.3294 15.6184 86.3013Z" stroke="black"/>
<path d="M7.66062 86.7145C7.99942 86.6054 8.24927 86.441 7.9138 85.3991C7.57815 84.3565 6.78408 82.8305 6.44528 82.9396C6.10526 83.0491 6.35129 84.7515 6.68695 85.7941C7.02241 86.836 7.32182 86.8235 7.66062 86.7145Z" fill="black"/>
<path d="M4.75461 97.6731C5.09159 97.5646 5.34326 97.3996 5.00779 96.3577C4.67213 95.3151 3.87806 93.7891 3.53926 93.8982C3.19742 94.0083 3.44406 95.7105 3.77972 96.7531C4.11538 97.7956 4.41277 97.7831 4.75461 97.6731Z" fill="black"/>
<path d="M14.8094 84.8499C15.1482 84.7408 15.4001 84.5765 15.0642 83.5333C14.7286 82.4908 13.9341 80.9656 13.5941 81.0751C13.2553 81.1841 13.5005 82.8862 13.8362 83.9287C14.1732 84.9715 14.4725 84.9584 14.8094 84.8499Z" fill="black"/>
<path d="M22.8592 87.5018C22.521 87.6107 22.7656 89.3129 23.1015 90.3561C23.4368 91.3974 23.7344 91.3855 24.0744 91.2761C24.4132 91.167 24.664 91.0036 24.3284 89.9611C23.9925 88.9179 23.198 87.3927 22.8592 87.5018Z" fill="black"/>
</svg>
