<svg width="47" height="45" viewBox="0 0 47 45" fill="none" xmlns="http://www.w3.org/2000/svg">
<path d="M23.2046 23C26.0837 23 29.3316 25.0916 32.0015 28.127C34.6408 31.1277 36.4606 34.7658 36.7036 37.4688C36.684 39.8238 34.6973 42.2544 31.9878 43.2412C30.6595 43.7249 29.224 43.8296 27.8647 43.4248C26.516 43.0231 25.1699 42.0984 24.0366 40.3984L23.3081 39.3066L22.4487 40.2979C19.421 43.7914 16.2074 44.3038 13.8413 43.4941C11.3995 42.6584 9.70459 40.3905 9.70459 37.9531C9.70459 36.7079 10.1341 35.1388 10.9409 33.4443C11.7415 31.7631 12.8832 30.0236 14.229 28.4531C15.5758 26.8815 17.1058 25.5034 18.6724 24.5254C20.2459 23.5431 21.7969 23 23.2046 23Z" fill="white" stroke="#166E7F" stroke-width="2"/>
<path d="M11.6777 10.7585L11.655 10.6901C10.977 8.60776 11.3074 6.61354 12.0875 5.08929C12.8437 3.61218 13.9321 2.72873 14.7706 2.50165L14.9347 2.46523C15.2686 2.40732 16.491 2.23129 17.77 2.91979C19.0022 3.58315 20.5277 5.18348 21.2197 9.17106L21.2771 9.55359C21.5221 11.4592 21.1102 13.2181 20.3668 14.5603C19.5583 16.02 18.4353 16.8657 17.4629 17.0346L17.2808 17.0593C16.3569 17.1459 15.2103 16.7163 14.1345 15.6804C13.0048 14.5925 12.0519 12.9147 11.6899 10.8287L11.6777 10.7585Z" fill="white" stroke="#166E7F" stroke-width="2"/>
<path d="M25.653 8.67446L25.6544 8.60238C25.7117 6.41324 26.69 4.64432 27.9349 3.46869C29.1415 2.32947 30.4627 1.86084 31.3288 1.92721L31.4957 1.94778C31.8297 2.00486 33.0406 2.24773 34.0158 3.32428C34.9552 4.36151 35.8577 6.37983 35.1764 10.3692L35.1027 10.749C34.6963 12.6268 33.7199 14.1467 32.5705 15.163C31.3204 16.2683 29.9793 16.6898 29.0064 16.5239L28.8266 16.4862C27.9268 16.2589 26.9899 15.4706 26.3224 14.1346C25.6215 12.7315 25.2846 10.8317 25.641 8.74473L25.653 8.67446Z" fill="white" stroke="#166E7F" stroke-width="2"/>
<path d="M35.4957 19.1436L35.5034 19.073C35.6939 17.248 36.6254 15.8347 37.7415 14.9341C38.8301 14.0558 39.949 13.7679 40.6307 13.8729L40.7611 13.8988C41.0324 13.9672 42.0126 14.2449 42.7445 15.1915C43.4441 16.0963 44.0817 17.8328 43.2409 21.1671L43.1548 21.4807C42.6913 23.0283 41.7741 24.2371 40.7479 25.0111C39.6275 25.856 38.4969 26.104 37.7321 25.9114L37.5915 25.8699C36.8891 25.6327 36.1658 24.9366 35.6945 23.7752C35.2014 22.5593 35.0416 20.9451 35.4781 19.2137L35.4957 19.1436Z" fill="white" stroke="#166E7F" stroke-width="2"/>
<path d="M3.738 22.1008L3.7028 22.0392C2.78511 20.4502 2.70893 18.7593 3.08339 17.3748C3.44862 16.0247 4.18512 15.1344 4.79852 14.8191L4.91928 14.7634C5.17901 14.6595 6.13544 14.3086 7.28379 14.6449C8.38135 14.9663 9.91729 15.9973 11.1951 19.1897L11.3096 19.4942C11.8434 21.0189 11.811 22.5359 11.4349 23.7651C11.0244 25.107 10.2549 25.9718 9.52286 26.265L9.38468 26.314C8.67683 26.5345 7.68257 26.3959 6.61907 25.7327C5.5058 25.0382 4.42844 23.8256 3.76485 22.1679L3.738 22.1008Z" fill="white" stroke="#166E7F" stroke-width="2"/>
</svg>
