<svg width="357" height="414" viewBox="0 0 357 414" fill="none" xmlns="http://www.w3.org/2000/svg">
<path d="M62.5072 352.074C50.4343 340.199 29.5488 341.789 15.9467 355.618C10.5862 361.068 6.9867 367.746 5.5436 374.93C5.45421 375.393 5.75431 375.849 6.21659 375.943L16.3293 377.977C16.7938 378.071 17.2478 377.769 17.342 377.305C18.3265 372.418 20.8085 367.837 24.5241 364.06C33.4708 354.964 46.7221 353.438 54.0608 360.656C61.3993 367.874 60.0923 381.149 51.1456 390.245C47.4302 394.022 42.891 396.58 38.0202 397.645C37.559 397.747 37.2624 398.204 37.3648 398.668L39.5667 408.746C39.6037 408.917 39.6891 409.062 39.8027 409.174C40.0039 409.372 40.2943 409.465 40.5908 409.403C47.7485 407.84 54.3671 404.131 59.7276 398.682C73.3346 384.858 74.5798 363.949 62.5072 352.074ZM41.0674 407.534L39.2298 399.133C44.1088 397.897 48.6362 395.253 52.3742 391.453C61.9881 381.679 63.2843 367.316 55.269 359.432C47.2532 351.548 32.9144 353.082 23.3016 362.854C19.5639 366.654 16.9974 371.228 15.84 376.124L7.40794 374.426C8.88814 367.892 12.2523 361.821 17.169 356.822C30.1062 343.669 49.9029 342.09 61.2974 353.298C72.6912 364.505 71.4386 384.327 58.5026 397.479C53.5909 402.478 47.5749 405.943 41.0674 407.534ZM65.9349 377.041C65.6613 378.924 64.6082 380.383 63.5838 380.294C62.557 380.207 61.9449 378.607 62.2196 376.723C62.4956 374.841 63.5488 373.384 64.5732 373.473C65.5965 373.558 66.2044 375.155 65.9349 377.041ZM59.8343 391.578C58.5363 393.027 56.8705 393.657 56.1192 392.989C55.3669 392.322 55.8064 390.605 57.1114 389.159C58.408 387.711 60.0716 387.081 60.8263 387.746C61.5792 388.414 61.1331 390.128 59.8343 391.578ZM41.0796 350.364C41.1855 351.387 39.7484 352.466 37.8682 352.771C35.9885 353.076 34.3774 352.489 34.2763 351.466C34.1704 350.444 35.6091 349.364 37.4889 349.061C39.3674 348.758 40.9751 349.34 41.0796 350.364ZM25.5195 358.079C24.0915 359.405 22.3862 359.876 21.703 359.136C21.0224 358.395 21.6268 356.719 23.0546 355.398C24.4816 354.074 26.1867 353.601 26.8691 354.342C27.5471 355.085 26.9443 356.758 25.5195 358.079ZM59.546 358.405C58.5056 359.463 56.8564 359.527 55.8586 358.546C54.8631 357.566 54.8988 355.915 55.9393 354.857C56.9815 353.798 58.6283 353.734 59.6261 354.715C60.6214 355.695 60.5871 357.346 59.546 358.405Z" fill="black"/>
<path d="M68.2246 251.061C54.9478 240.549 34.3533 244.371 22.3127 259.578C17.5675 265.572 14.7051 272.597 14.0407 279.895C14.0015 280.365 14.3487 280.785 14.8184 280.829L25.091 281.767C25.5629 281.811 25.9818 281.462 26.0258 280.991C26.4804 276.026 28.4569 271.206 31.746 267.051C39.6656 257.049 52.6768 254.11 60.7473 260.5C68.8176 266.889 68.9418 280.228 61.0222 290.231C57.7333 294.385 53.4946 297.414 48.7661 298.995C48.3185 299.147 48.0726 299.633 48.2242 300.083L51.4943 309.867C51.5493 310.033 51.6498 310.168 51.7748 310.267C51.996 310.442 52.2947 310.503 52.5828 310.41C59.5316 308.089 65.7143 303.692 70.4595 297.698C82.5055 282.495 81.501 261.573 68.2246 251.061ZM52.8563 308.501L50.1283 300.346C54.8466 298.593 59.0644 295.479 62.3732 291.3C70.8835 280.551 70.6319 266.132 61.8173 259.153C53.0021 252.174 38.9105 255.237 30.4013 265.984C27.0926 270.163 25.0314 274.985 24.4059 279.978L15.8403 279.194C16.6112 272.539 19.3048 266.142 23.6571 260.645C35.1091 246.18 54.6222 242.487 67.1531 252.408C79.683 262.329 80.5635 282.171 69.1125 296.634C64.7653 302.131 59.1556 306.221 52.8563 308.501ZM74.3102 275.517C74.2401 277.418 73.3494 278.981 72.3214 279.003C71.2912 279.027 70.511 277.502 70.5822 275.599C70.6547 273.698 71.5456 272.137 72.5736 272.116C73.6002 272.09 74.3759 273.613 74.3102 275.517ZM69.8037 290.624C68.6686 292.204 67.08 293.009 66.2613 292.425C65.4418 291.843 65.6947 290.089 66.8371 288.511C67.971 286.933 69.5574 286.128 70.379 286.708C71.1993 287.292 70.9395 289.043 69.8037 290.624ZM46.7372 251.66C46.9522 252.665 45.6391 253.892 43.8024 254.397C41.9663 254.902 40.3015 254.491 40.0914 253.485C39.8764 252.479 41.191 251.252 43.0275 250.749C44.8626 250.246 46.5235 250.653 46.7372 251.66ZM32.0942 260.999C30.8167 262.47 29.1717 263.121 28.4131 262.459C27.657 261.795 28.0781 260.064 29.356 258.597C30.6328 257.128 32.2774 256.475 33.0353 257.139C33.789 257.804 33.3691 259.532 32.0942 260.999ZM65.9595 257.673C65.0385 258.836 63.4057 259.077 62.3084 258.209C61.2136 257.342 61.072 255.696 61.993 254.533C62.9156 253.368 64.546 253.128 65.6433 253.996C66.738 254.864 66.881 256.509 65.9595 257.673Z" fill="black"/>
<path d="M172.658 238.228C160.677 226.26 139.78 227.69 126.072 241.413C120.669 246.821 117.019 253.472 115.52 260.644C115.427 261.107 115.724 261.565 116.185 261.662L126.282 263.774C126.746 263.872 127.202 263.573 127.3 263.111C128.322 258.231 130.839 253.669 134.584 249.921C143.6 240.894 156.863 239.47 164.146 246.745C171.429 254.019 170.019 267.284 161.003 276.31C157.258 280.059 152.7 282.581 147.821 283.609C147.359 283.708 147.059 284.162 147.158 284.627L149.282 294.722C149.317 294.893 149.402 295.039 149.514 295.151C149.714 295.351 150.004 295.446 150.301 295.386C157.47 293.879 164.117 290.221 169.52 284.813C183.233 271.094 184.639 250.195 172.658 238.228ZM150.792 293.521L149.019 285.107C153.907 283.908 158.455 281.299 162.222 277.528C171.911 267.828 173.318 253.476 165.363 245.53C157.409 237.584 143.058 239.007 133.371 248.706C129.604 252.477 127.002 257.03 125.807 261.918L117.388 260.155C118.919 253.632 122.33 247.587 127.285 242.627C140.323 229.574 160.131 228.147 171.439 239.443C182.746 250.737 181.341 270.549 168.304 283.6C163.354 288.561 157.311 291.98 150.792 293.521ZM175.893 263.221C175.605 265.101 174.541 266.552 173.517 266.455C172.491 266.361 171.891 264.756 172.181 262.874C172.471 260.994 173.536 259.545 174.559 259.642C175.582 259.735 176.177 261.337 175.893 263.221ZM169.681 277.71C168.372 279.149 166.701 279.766 165.955 279.092C165.208 278.419 165.661 276.706 166.977 275.27C168.285 273.832 169.953 273.215 170.702 273.885C171.45 274.56 170.991 276.27 169.681 277.71ZM151.244 236.353C151.342 237.377 149.897 238.445 148.014 238.735C146.132 239.026 144.526 238.426 144.433 237.403C144.335 236.379 145.782 235.311 147.664 235.022C149.544 234.734 151.148 235.328 151.244 236.353ZM135.625 243.948C134.187 245.263 132.478 245.721 131.801 244.975C131.126 244.23 131.743 242.558 133.181 241.248C134.618 239.935 136.327 239.475 137.004 240.222C137.676 240.969 137.06 242.638 135.625 243.948ZM169.648 244.536C168.6 245.585 166.95 245.637 165.96 244.648C164.972 243.661 165.02 242.01 166.069 240.96C167.119 239.909 168.766 239.858 169.757 240.847C170.744 241.834 170.697 243.485 169.648 244.536Z" fill="black"/>
<path d="M176.224 135.06C162.947 124.548 142.352 128.369 130.312 143.577C125.567 149.57 122.704 156.596 122.04 163.893C122.001 164.363 122.348 164.784 122.817 164.828L133.09 165.766C133.562 165.81 133.981 165.461 134.025 164.989C134.479 160.024 136.456 155.204 139.745 151.05C147.665 141.047 160.676 138.109 168.746 144.498C176.817 150.888 176.941 164.226 169.021 174.229C165.732 178.383 161.494 181.413 156.765 182.994C156.318 183.145 156.072 183.631 156.223 184.082L159.493 193.866C159.548 194.031 159.649 194.167 159.774 194.266C159.995 194.441 160.294 194.502 160.582 194.409C167.531 192.087 173.713 187.69 178.459 181.697C190.504 166.493 189.5 145.571 176.224 135.06ZM160.855 192.5L158.127 184.344C162.846 182.592 167.063 179.478 170.372 175.298C178.883 164.55 178.631 150.131 169.816 143.152C161.001 136.173 146.91 139.235 138.4 149.983C135.092 154.162 133.03 158.984 132.405 163.977L123.839 163.192C124.61 156.537 127.304 150.14 131.656 144.643C143.108 130.179 162.621 126.486 175.152 136.407C187.682 146.327 188.563 166.169 177.112 180.632C172.764 186.129 167.155 190.22 160.855 192.5ZM182.309 159.515C182.239 161.417 181.348 162.98 180.32 163.001C179.29 163.025 178.51 161.5 178.581 159.598C178.654 157.696 179.545 156.135 180.573 156.114C181.599 156.089 182.375 157.612 182.309 159.515ZM177.803 174.623C176.668 176.202 175.079 177.007 174.26 176.424C173.441 175.841 173.694 174.088 174.836 172.509C175.97 170.931 177.556 170.126 178.378 170.706C179.198 171.29 178.939 173.042 177.803 174.623ZM154.736 135.658C154.951 136.664 153.638 137.891 151.801 138.395C149.965 138.9 148.301 138.49 148.09 137.483C147.875 136.478 149.19 135.251 151.027 134.748C152.862 134.245 154.522 134.651 154.736 135.658ZM140.093 144.997C138.816 146.469 137.171 147.12 136.412 146.457C135.656 145.794 136.077 144.062 137.355 142.596C138.632 141.126 140.276 140.474 141.034 141.137C141.788 141.803 141.368 143.531 140.093 144.997ZM173.958 141.672C173.037 142.835 171.405 143.076 170.307 142.207C169.213 141.34 169.071 139.695 169.992 138.531C170.915 137.366 172.545 137.126 173.642 137.995C174.737 138.862 174.88 140.508 173.958 141.672Z" fill="black"/>
<path d="M283.051 146.727C271.967 133.924 251.021 133.839 236.356 146.536C230.577 151.54 226.455 157.909 224.442 164.954C224.316 165.409 224.579 165.887 225.032 166.017L234.95 168.854C235.405 168.985 235.882 168.72 236.013 168.265C237.385 163.472 240.225 159.105 244.231 155.637C253.877 147.286 267.208 146.824 273.946 154.606C280.683 162.388 278.319 175.516 268.673 183.867C264.668 187.335 259.938 189.521 254.998 190.194C254.53 190.259 254.198 190.69 254.263 191.161L255.652 201.383C255.675 201.556 255.748 201.708 255.853 201.829C256.037 202.042 256.32 202.158 256.62 202.12C263.88 201.134 270.774 197.967 276.553 192.963C291.222 180.272 294.135 159.529 283.051 146.727ZM257.245 200.295L256.085 191.774C261.047 190.932 265.771 188.659 269.801 185.17C280.166 176.196 282.607 161.983 275.248 153.483C267.888 144.983 253.473 145.365 243.109 154.337C239.079 157.826 236.155 162.18 234.61 166.968L226.341 164.601C228.339 158.206 232.178 152.423 237.478 147.834C251.426 135.758 271.286 135.767 281.747 147.851C292.208 159.933 289.375 179.591 275.428 191.666C270.132 196.256 263.858 199.229 257.245 200.295ZM284.471 171.888C284.048 173.743 282.881 175.113 281.867 174.943C280.851 174.774 280.369 173.13 280.793 171.274C281.219 169.42 282.385 168.052 283.399 168.223C284.412 168.39 284.891 170.03 284.471 171.888ZM277.227 185.891C275.818 187.231 274.107 187.726 273.411 187C272.715 186.275 273.29 184.599 274.707 183.261C276.115 181.922 277.824 181.427 278.523 182.15C279.22 182.877 278.638 184.549 277.227 185.891ZM261.829 143.309C261.853 144.337 260.334 145.298 258.435 145.451C256.537 145.605 254.978 144.891 254.959 143.864C254.936 142.836 256.456 141.875 258.354 141.723C260.251 141.571 261.807 142.28 261.829 143.309ZM245.702 149.755C244.172 150.963 242.435 151.295 241.813 150.503C241.194 149.711 241.93 148.088 243.459 146.885C244.987 145.68 246.725 145.345 247.346 146.138C247.962 146.932 247.228 148.552 245.702 149.755ZM279.593 152.801C278.472 153.772 276.822 153.704 275.906 152.646C274.992 151.59 275.16 149.947 276.282 148.976C277.405 148.003 279.052 148.071 279.968 149.13C280.882 150.186 280.716 151.829 279.593 152.801Z" fill="black"/>
<path d="M282.22 43.0617C268.943 32.5498 248.349 36.3711 236.308 51.5788C231.563 57.5721 228.701 64.598 228.036 71.895C227.997 72.3652 228.344 72.7858 228.814 72.8297L239.087 73.7679C239.559 73.8118 239.977 73.4625 240.021 72.9914C240.476 68.0263 242.453 63.2061 245.742 59.0519C253.661 49.0491 266.672 46.1105 274.743 52.5003C282.813 58.8899 282.937 72.2284 275.018 82.2312C271.729 86.3852 267.49 89.4146 262.762 90.9959C262.314 91.1474 262.068 91.6333 262.22 92.0835L265.49 101.868C265.545 102.033 265.645 102.169 265.77 102.268C265.992 102.443 266.29 102.504 266.578 102.411C273.527 100.089 279.71 95.692 284.455 89.6987C296.501 74.4952 295.497 53.5732 282.22 43.0617ZM266.852 100.502L264.124 92.3462C268.842 90.5938 273.06 87.4796 276.369 83.3004C284.879 72.5517 284.627 58.1327 275.813 51.1539C266.998 44.1745 252.906 47.2373 244.397 57.9847C241.088 62.1636 239.027 66.9856 238.401 71.9785L229.836 71.1944C230.607 64.539 233.3 58.142 237.653 52.645C249.105 38.1806 268.618 34.4875 281.149 44.4087C293.679 54.3292 294.559 74.171 283.108 88.634C278.761 94.1311 273.151 98.2215 266.852 100.502ZM288.306 67.5174C288.236 69.4185 287.345 70.9819 286.317 71.0033C285.287 71.0274 284.507 69.5022 284.578 67.5998C284.65 65.6984 285.541 64.1374 286.569 64.116C287.596 64.0909 288.371 65.6136 288.306 67.5174ZM283.799 82.6245C282.664 84.2042 281.076 85.0092 280.257 84.4255C279.437 83.843 279.69 82.0896 280.833 80.5112C281.967 78.9331 283.553 78.1282 284.375 78.708C285.195 79.2923 284.935 81.0435 283.799 82.6245ZM260.733 43.6602C260.948 44.6657 259.635 45.8925 257.798 46.397C255.962 46.9021 254.297 46.4915 254.087 45.4854C253.872 44.4799 255.187 43.2525 257.023 42.7496C258.858 42.2466 260.519 42.6531 260.733 43.6602ZM246.09 52.9994C244.812 54.4707 243.167 55.1216 242.409 54.459C241.653 53.7959 242.074 52.0644 243.352 50.5977C244.628 49.1284 246.273 48.4757 247.031 49.1392C247.785 49.8048 247.365 51.5325 246.09 52.9994ZM279.955 49.6737C279.034 50.8369 277.401 51.0779 276.304 50.2091C275.209 49.3422 275.068 47.6965 275.989 46.5333C276.911 45.368 278.542 45.1282 279.639 45.9969C280.734 46.864 280.877 48.5098 279.955 49.6737Z" fill="black"/>
</svg>
